/* XPM */
static const char *cape[] = {
/* columns rows colors chars-per-pixel */
"32 16 7 1 ",
"  c #282828",
". c #B02828",
"X c #C00000",
"o c #C85830",
"O c #E07070",
"+ c #F8F8F8",
"@ c None",
/* pixels */
"@@@@@@@@@ @@@@@@@@@@@@@@@ @@@@@@",
"@   @@@@ . @@@@@@   @@@@ X @@@@@",
" ..O    .OO @@@@ XXX    XXX @@@@",
"@ ..OOOOOO. @@@@ ++XXXXXXXX @@@@",
"@   ..OOO.. @@@@@  ++XXXXX  @@@@",
"@ +  .....  @@@@ +X  ++XX+ X @@@",
"@@ +.  .. . @@@@@ +XX  ++ XX @@@",
"@@ +o..  .. @@@@@ +XXXX  XXX @@@",
"@@ +oOO....O @@@@ +XXXXXXXXX @@@",
"@@ +.OOO...OO  @@ +XXXXX XXXX  @",
"@ +..OOO. ..OO.  +XXXXXXX XXXXX ",
"@ +...OOO+ ...+  +XXXXXX++ XXX+ ",
"@ +...OO+   ++ @ +XXXXXX+  +++ @",
"@@ ++...+ @   @@@ ++XXX++ @   @@",
"@@@  +++ @@@@@@@@@  ++++ @@@@@@@",
"@@@@@   @@@@@@@@@@@@     @@@@@@@"
};
