/* XPM */
static const char *gui[] = {
/* columns rows colors chars-per-pixel */
"144 48 7 1 ",
"  c gray15",
". c #313E7A",
"X c #E54141",
"o c #5DE563",
"O c #F9D041",
"+ c #F9F9F9",
"@ c None",
/* pixels */
"@@@@@@@@                                @@@@@@@@@@@@@@@@                                @@@@@@@@@@@@@@@@                                @@@@@@@@",
"@@@@@@@@                                @@@@@@@@@@@@@@@@                                @@@@@@@@@@@@@@@@                                @@@@@@@@",
"@@@@    oooooooooooooooooooooooooooooooo    @@@@@@@@    OOOOOOOOOOOOOOOOOOOOOOOOOOOOOOOO    @@@@@@@@    XXXXXXXXXXXXXXXXXXXXXXXXXXXXXXXX    @@@@",
"@@@@    oooooooooooooooooooooooooooooooo    @@@@@@@@    OOOOOOOOOOOOOOOOOOOOOOOOOOOOOOOO    @@@@@@@@    XXXXXXXXXXXXXXXXXXXXXXXXXXXXXXXX    @@@@",
"@@  oooo++oooooooooooooooooooooooooooo++oooo  @@@@  OOOO++OOOOOOOOOOOOOOOOOOOOOOOOOOOO++OOOO  @@@@  XXXX++XXXXXXXXXXXXXXXXXXXXXXXXXXXX++XXXX  @@",
"@@  oooo++oooooooooooooooooooooooooooo++oooo  @@@@  OOOO++OOOOOOOOOOOOOOOOOOOOOOOOOOOO++OOOO  @@@@  XXXX++XXXXXXXXXXXXXXXXXXXXXXXXXXXX++XXXX  @@",
"@@  oooooo++++++++++++++++++++++++++++oooooo  @@@@  OOOOOO++++++++++++++++++++++++++++OOOOOO  @@@@  XXXXXX++++++++++++++++++++++++++++XXXXXX  @@",
"@@  oooooo++++++++++++++++++++++++++++oooooo  @@@@  OOOOOO++++++++++++++++++++++++++++OOOOOO  @@@@  XXXXXX++++++++++++++++++++++++++++XXXXXX  @@",
"  oo++oo++                            ++oo++oo    OO++OO++                            ++OO++OO    XX++XX++                            ++XX++XX  ",
"  oo++oo++                            ++oo++oo    OO++OO++                            ++OO++OO    XX++XX++                            ++XX++XX  ",
"  oooo++                                ++oooo    OOOO++                                ++OOOO    XXXX++                                ++XXXX  ",
"  oooo++                                ++oooo    OOOO++                                ++OOOO    XXXX++                                ++XXXX  ",
"  oooo++                                ++oooo    OOOO++                                ++OOOO    XXXX++                                ++XXXX  ",
"  oooo++                                ++oooo    OOOO++                                ++OOOO    XXXX++                                ++XXXX  ",
"  oooo++                                ++oooo    OOOO++                                ++OOOO    XXXX++                                ++XXXX  ",
"  oooo++                                ++oooo    OOOO++                                ++OOOO    XXXX++                                ++XXXX  ",
"  oooo++                                ++oooo    OOOO++                                ++OOOO    XXXX++                                ++XXXX  ",
"  oooo++                                ++oooo    OOOO++                                ++OOOO    XXXX++                                ++XXXX  ",
"  oooo++                                ++oooo    OOOO++                                ++OOOO    XXXX++                                ++XXXX  ",
"  oooo++                                ++oooo    OOOO++                                ++OOOO    XXXX++                                ++XXXX  ",
"  oooo++                                ++oooo    OOOO++                                ++OOOO    XXXX++                                ++XXXX  ",
"  oooo++                                ++oooo    OOOO++                                ++OOOO    XXXX++                                ++XXXX  ",
"  oooo++                                ++oooo    OOOO++                                ++OOOO    XXXX++                                ++XXXX  ",
"  oooo++                                ++oooo    OOOO++                                ++OOOO    XXXX++                                ++XXXX  ",
"  oooo++                                ++oooo    OOOO++                                ++OOOO    XXXX++                                ++XXXX  ",
"  oooo++                                ++oooo    OOOO++                                ++OOOO    XXXX++                                ++XXXX  ",
"  oooo++                                ++oooo    OOOO++                                ++OOOO    XXXX++                                ++XXXX  ",
"  oooo++                                ++oooo    OOOO++                                ++OOOO    XXXX++                                ++XXXX  ",
"  oooo++                                ++oooo    OOOO++                                ++OOOO    XXXX++                                ++XXXX  ",
"  oooo++                                ++oooo    OOOO++                                ++OOOO    XXXX++                                ++XXXX  ",
"  oooo++                                ++oooo    OOOO++                                ++OOOO    XXXX++                                ++XXXX  ",
"  oooo++                                ++oooo    OOOO++                                ++OOOO    XXXX++                                ++XXXX  ",
"  oooo++                                ++oooo    OOOO++                                ++OOOO    XXXX++                                ++XXXX  ",
"  oooo++                                ++oooo    OOOO++                                ++OOOO    XXXX++                                ++XXXX  ",
"  oooo++                                ++oooo    OOOO++                                ++OOOO    XXXX++                                ++XXXX  ",
"  oooo++                                ++oooo    OOOO++                                ++OOOO    XXXX++                                ++XXXX  ",
"  oooo++                                ++oooo    OOOO++                                ++OOOO    XXXX++                                ++XXXX  ",
"  oooo++                                ++oooo    OOOO++                                ++OOOO    XXXX++                                ++XXXX  ",
"  oo++oo++                            ++oo++oo    OO++OO++                            ++OO++OO    XX++XX++                            ++XX++XX  ",
"  oo++oo++                            ++oo++oo    OO++OO++                            ++OO++OO    XX++XX++                            ++XX++XX  ",
"@@  oooooo++++++++++++++++++++++++++++oooooo  @@@@  OOOOOO++++++++++++++++++++++++++++OOOOOO  @@@@  XXXXXX++++++++++++++++++++++++++++XXXXXX  @@",
"@@  oooooo++++++++++++++++++++++++++++oooooo  @@@@  OOOOOO++++++++++++++++++++++++++++OOOOOO  @@@@  XXXXXX++++++++++++++++++++++++++++XXXXXX  @@",
"@@  oooo++oooooooooooooooooooooooooooo++oooo  @@@@  OOOO++OOOOOOOOOOOOOOOOOOOOOOOOOOOO++OOOO  @@@@  XXXX++XXXXXXXXXXXXXXXXXXXXXXXXXXXX++XXXX  @@",
"@@  oooo++oooooooooooooooooooooooooooo++oooo  @@@@  OOOO++OOOOOOOOOOOOOOOOOOOOOOOOOOOO++OOOO  @@@@  XXXX++XXXXXXXXXXXXXXXXXXXXXXXXXXXX++XXXX  @@",
"@@@@    oooooooooooooooooooooooooooooooo    ..@@@@@@    OOOOOOOOOOOOOOOOOOOOOOOOOOOOOOOO    ..@@@@@@    XXXXXXXXXXXXXXXXXXXXXXXXXXXXXXXX    ..@@",
"@@@@    oooooooooooooooooooooooooooooooo    ..@@@@@@    OOOOOOOOOOOOOOOOOOOOOOOOOOOOOOOO    ..@@@@@@    XXXXXXXXXXXXXXXXXXXXXXXXXXXXXXXX    ..@@",
"@@@@@@@@                                @@@@@@@@@@@@@@@@                                @@@@@@@@@@@@@@@@                                @@@@@@@@",
"@@@@@@@@                                @@@@@@@@@@@@@@@@                                @@@@@@@@@@@@@@@@                                @@@@@@@@"
};
