/* XPM */
static const char *heart[] = {
/* columns rows colors chars-per-pixel */
"160 48 4 1 ",
"  c #B02828",
". c #E07070",
"X c #F8F8F8",
"o c None",
/* pixels */
"oooooooooooooooooooooooooooooooooooooooooooooooooooooooooooooooooooooooooooooooooooooooooooooooooooooooooooooooooooooooooooooooooooooooooooooooooooooooooooooooo",
"oooooooooooooooooooooooooooooooooooooooooooooooooooooooooooooooooooooooooooooooooooooooooooooooooooooooooooooooooooooooooooooooooooooooooooooooooooooooooooooooo",
"oo    oooo    oooooo    oooooooooooo    oooooooooooo    oooooooooooo    oooooooooooo    oooooooooooo    oooooooooooo    oooooooooooo    oooooooooooo    oooooooo",
"oo    oooo    oooooo    oooooooooooo    oooooooooooo    oooooooooooo    oooooooooooo    oooooooooooo    oooooooooooo    oooooooooooo    oooooooooooo    oooooooo",
"          ..    oo    ..  oooooooo    ..  oooooooo    ..  oooooooo    ..  oooooooo    ..  oooooooo    ..  oooooooo    ..  oooooooo    ..  oooooooo    ..  oooooo",
"          ..    oo    ..  oooooooo    ..  oooooooo    ..  oooooooo    ..  oooooooo    ..  oooooooo    ..  oooooooo    ..  oooooooo    ..  oooooooo    ..  oooooo",
"    ..  ..XX..      ..  ..  oooo    ..  ..  oooo    ..  ..  oooo    ..  ..  oooo    ..  ..  oooo    ..  ..  oooo    ..  ..  oooo    ..  ..  oooo    ..  ..  oooo",
"    ..  ..XX..      ..  ..  oooo    ..  ..  oooo    ..  ..  oooo    ..  ..  oooo    ..  ..  oooo    ..  ..  oooo    ..  ..  oooo    ..  ..  oooo    ..  ..  oooo",
"  ..........      ..XX..      oo  ..XX..      oo  ..XX..      oo  ..XX..      oo  ..XX..      oo  ..XX..      oo  ..XX..      oo  ..XX..      oo  ..XX..      oo",
"  ..........      ..XX..      oo  ..XX..      oo  ..XX..      oo  ..XX..      oo  ..XX..      oo  ..XX..      oo  ..XX..      oo  ..XX..      oo  ..XX..      oo",
"oo  ......    oo    ........        ........        ........        ........        ........        ........        ........        ........        ........    ",
"oo  ......    oo    ........        ........        ........        ........        ........        ........        ........        ........        ........    ",
"oooo  ..    oooooo            oooo            oooo            oooo            oooo            oooo            oooo            oooo            oooo            oo",
"oooo  ..    oooooo            oooo            oooo            oooo            oooo            oooo            oooo            oooo            oooo            oo",
"oooooo    oooooooooo      oooooooooo      oooooooooo      oooooooooo      oooooooooo      oooooooooo      oooooooooo      oooooooooo      oooooooooo      oooooo",
"oooooo    oooooooooo      oooooooooo      oooooooooo      oooooooooo      oooooooooo      oooooooooo      oooooooooo      oooooooooo      oooooooooo      oooooo",
"oooooooooooooooooooooooooooooooooooooooooooooooooooooooooooooooooooooooooooooooooooooooooooooooooooooooooooooooooooooooooooooooooooooooooooooooooooooooooooooooo",
"oooooooooooooooooooooooooooooooooooooooooooooooooooooooooooooooooooooooooooooooooooooooooooooooooooooooooooooooooooooooooooooooooooooooooooooooooooooooooooooooo",
"oooo    oooooooooooo    oooooooooooo    oooooooooooo    oooooooooooooooo    oooooooooooo    oooooooooooo    oooooooooooo    oooooooooooo    oooooooooooo    oooo",
"oooo    oooooooooooo    oooooooooooo    oooooooooooo    oooooooooooooooo    oooooooooooo    oooooooooooo    oooooooooooo    oooooooooooo    oooooooooooo    oooo",
"oo    ..  oooooooo    ..  oooooooo    ..  oooooooo    ..  oooooooooooo  ..    oooooooo  ..    oooooooo  ..    oooooooo  ..    oooooooo  ..    oooooooo  ..    oo",
"oo    ..  oooooooo    ..  oooooooo    ..  oooooooo    ..  oooooooooooo  ..    oooooooo  ..    oooooooo  ..    oooooooo  ..    oooooooo  ..    oooooooo  ..    oo",
"    ..  ..  oooo    ..  ..  oooo    ..  ..  oooo    ..  ..  oooooooo  ..  ..    oooo  ..  ..    oooo  ..  ..    oooo  ..  ..    oooo  ..  ..    oooo  ..  ..    ",
"    ..  ..  oooo    ..  ..  oooo    ..  ..  oooo    ..  ..  oooooooo  ..  ..    oooo  ..  ..    oooo  ..  ..    oooo  ..  ..    oooo  ..  ..    oooo  ..  ..    ",
"  ..XX..      oo  ..XX..      oo  ..XX..      oo  ..XX..      oooo      ..XX..  oo      ..XX..  oo      ..XX..  oo      ..XX..  oo      ..XX..  oo      ..XX..  ",
"  ..XX..      oo  ..XX..      oo  ..XX..      oo  ..XX..      oooo      ..XX..  oo      ..XX..  oo      ..XX..  oo      ..XX..  oo      ..XX..  oo      ..XX..  ",
"    ........        ........        ........        ........        ........        ........        ........        ........        ........        ........    ",
"    ........        ........        ........        ........        ........        ........        ........        ........        ........        ........    ",
"oo            oooo            oooo            oooo            oooo            oooo            oooo            oooo            oooo            oooo            oo",
"oo            oooo            oooo            oooo            oooo            oooo            oooo            oooo            oooo            oooo            oo",
"oooo      oooooooooo      oooooooooo      oooooooooo      oooooooooooo      oooooooooo      oooooooooo      oooooooooo      oooooooooo      oooooooooo      oooo",
"oooo      oooooooooo      oooooooooo      oooooooooo      oooooooooooo      oooooooooo      oooooooooo      oooooooooo      oooooooooo      oooooooooo      oooo",
"oooooooooooooooooooooooooooooooooooooooooooooooooooooooooooooooooooooooooooooooooooooooooooooooooooooooooooooooooooooooooooooooooooooooooooooooooooooooooooooooo",
"oooooooooooooooooooooooooooooooooooooooooooooooooooooooooooooooooooooooooooooooooooooooooooooooooooooooooooooooooooooooooooooooooooooooooooooooooooooooooooooooo",
"oooooooo    oooooooo    oooooooooooo    oooooooooooo    oooooooooo    oooo    oooooooooooooooooooooooooooooooooooooooooooooooooooooooooooooooooooooooooooooooooo",
"oooooooo    oooooooo    oooooooooooo    oooooooooooo    oooooooooo    oooo    oooooooooooooooooooooooooooooooooooooooooooooooooooooooooooooooooooooooooooooooooo",
"oooooo  ..    oooo    ..  oooooooo    ..  oooooooo    ..  oooooo          ..    oooooooooooooooooooooooooooooooooooooooooooooooooooooooooooooooooooooooooooooooo",
"oooooo  ..    oooo    ..  oooooooo    ..  oooooooo    ..  oooooo          ..    oooooooooooooooooooooooooooooooooooooooooooooooooooooooooooooooooooooooooooooooo",
"oooo  ..  ..        ..  ..  oooo    ..  ..  oooo    ..  ..  oooo    ..  ..XX..  oooooooooooooooooooooooooooooooooooooooooooooooooooooooooooooooooooooooooooooooo",
"oooo  ..  ..        ..  ..  oooo    ..  ..  oooo    ..  ..  oooo    ..  ..XX..  oooooooooooooooooooooooooooooooooooooooooooooooooooooooooooooooooooooooooooooooo",
"oo      ..XX..    ..XX..      oo  ..XX..      oo  ..XX..      oo  ..........    oooooooooooooooooooooooooooooooooooooooooooooooooooooooooooooooooooooooooooooooo",
"oo      ..XX..    ..XX..      oo  ..XX..      oo  ..XX..      oo  ..........    oooooooooooooooooooooooooooooooooooooooooooooooooooooooooooooooooooooooooooooooo",
"    ........        ........        ........        ........    oo  ......    oooooooooooooooooooooooooooooooooooooooooooooooooooooooooooooooooooooooooooooooooo",
"    ........        ........        ........        ........    oo  ......    oooooooooooooooooooooooooooooooooooooooooooooooooooooooooooooooooooooooooooooooooo",
"oo            oooo            oooo            oooo            oooooo  ..    oooooooooooooooooooooooooooooooooooooooooooooooooooooooooooooooooooooooooooooooooooo",
"oo            oooo            oooo            oooo            oooooo  ..    oooooooooooooooooooooooooooooooooooooooooooooooooooooooooooooooooooooooooooooooooooo",
"oooooo      oooooooo      oooooooooo      oooooooooo      oooooooooooo    oooooooooooooooooooooooooooooooooooooooooooooooooooooooooooooooooooooooooooooooooooooo",
"oooooo      oooooooo      oooooooooo      oooooooooo      oooooooooooo    oooooooooooooooooooooooooooooooooooooooooooooooooooooooooooooooooooooooooooooooooooooo"
};
