/* XPM */
static const char *item_cursor[] = {
/* columns rows colors chars-per-pixel */
"128 64 2 1 ",
"  c #42E34A",
". c None",
/* pixels */
"................................................................................................................................",
"................................................................................................................................",
"................................................................................................................................",
"................................................................................................................................",
"................................................................................................................................",
"................................................................................................................................",
"..........................  ........  ....................................................            ..........................",
"..........................  ........  ....................................................            ..........................",
"......................      ........      ............................................                    ......................",
"......................      ........      ............................................                    ......................",
"..................        ............        ....................................        ............        ..................",
"..................        ............        ....................................        ............        ..................",
"..................    ....................    ..................................      ....................      ................",
"..................    ....................    ..................................      ....................      ................",
"..............................................................................    ............................    ..............",
"..............................................................................    ............................    ..............",
"............................................................................    ................................    ............",
"............................................................................    ................................    ............",
"..........    ....................................    ....................    ....................................    ..........",
"..........    ....................................    ....................    ....................................    ..........",
"..........    ....................................    ....................    ....................................    ..........",
"..........    ....................................    ....................    ....................................    ..........",
"........    ........................................    ................    ........................................    ........",
"........    ........................................    ................    ........................................    ........",
"........    ........................................    ................    ........................................    ........",
"........    ........................................    ................    ........................................    ........",
"......    ............................................    ............    ............................................    ......",
"......    ............................................    ............    ............................................    ......",
"......................................................................    ............................................    ......",
"......................................................................    ............................................    ......",
"......................................................................    ............................................    ......",
"......................................................................    ............................................    ......",
"......................................................................    ............................................    ......",
"......................................................................    ............................................    ......",
"......................................................................    ............................................    ......",
"......................................................................    ............................................    ......",
"......    ............................................    ............    ............................................    ......",
"......    ............................................    ............    ............................................    ......",
"........    ........................................    ................    ........................................    ........",
"........    ........................................    ................    ........................................    ........",
"........    ........................................    ................    ........................................    ........",
"........    ........................................    ................    ........................................    ........",
"..........    ....................................    ....................    ....................................    ..........",
"..........    ....................................    ....................    ....................................    ..........",
"..........    ....................................    ....................    ....................................    ..........",
"..........    ....................................    ....................    ....................................    ..........",
"............................................................................    ................................    ............",
"............................................................................    ................................    ............",
"..............................................................................    ............................    ..............",
"..............................................................................    ............................    ..............",
"..................    ....................    ..................................      ....................      ................",
"..................    ....................    ..................................      ....................      ................",
"..................        ............        ....................................        ............        ..................",
"..................        ............        ....................................        ............        ..................",
"......................      ........      ............................................                    ......................",
"......................      ........      ............................................                    ......................",
"..........................  ........  ....................................................            ..........................",
"..........................  ........  ....................................................            ..........................",
"................................................................................................................................",
"................................................................................................................................",
"................................................................................................................................",
"................................................................................................................................",
"................................................................................................................................",
"................................................................................................................................"
};
