/* XPM */
static const char *shoes[] = {
/* columns rows colors chars-per-pixel */
"32 16 8 1 ",
"  c #282828",
". c #B02828",
"X c #C02800",
"o c #E07070",
"O c #E8C880",
"+ c #B8B8C8",
"@ c #F8F8F8",
"# c None",
/* pixels */
"######   #### ##################",
"##### ...  # . ########    ### #",
"##### .ooo. o. ####### XXXX   X ",
"##### ...ooo.. ####### XXOXXXXX ",
"##### ...   .. ####### XXXOOOXX ",
"######   +++   ######## XXXXXXX ",
"###### ..   .. ####### X       #",
"###### o...... ####### XX OOO X ",
"###### oo....o ####### XOX   XX ",
"##### ..ooo.oo ####### OXOXXXXX ",
"###  o......o  #####  X OXXXXX #",
"## .o@ooo..o.o #### XXXO OXXXX #",
"# ..ooo..o.... ### XXOOXXXXXX X ",
"# .......  ... ## XXXXXXXXXXXXX ",
"#        ##   ### XXXXXXXXX XXX ",
"##################         #   #"
};
