/* XPM */
static const char *digits[] = {
/* columns rows colors chars-per-pixel */
"160 32 4 1 ",
"  c #000008",
". c green",
"X c #F8F8F8",
"o c None",
/* pixels */
"oooo        oooooooooo    oooooooooo        oooooooo        oooooooooo      oooooo            oooooo        oooooo            oooooo        oooooooo        oooo",
"oooo        oooooooooo    oooooooooo        oooooooo        oooooooooo      oooooo            oooooo        oooooo            oooooo        oooooooo        oooo",
"oo  XXXXXXXX  oooooo  XXXX  oooooo  XXXXXXXX  oooo  XXXXXXXX  oooooo  XXXXXX  oo  XXXXXXXXXXXX  oo  XXXXXXXX  oo  XXXXXXXXXXXX  oo  XXXXXXXX  oooo  XXXXXXXX  oo",
"oo  XXXXXXXX  oooooo  XXXX  oooooo  XXXXXXXX  oooo  XXXXXXXX  oooooo  XXXXXX  oo  XXXXXXXXXXXX  oo  XXXXXXXX  oo  XXXXXXXXXXXX  oo  XXXXXXXX  oooo  XXXXXXXX  oo",
"  XXXX    XXXX  oo  XXXXXX  oooo  XXXX    XXXX  oooo      XXXX  oo  XXXXXXXX  oo  XXXX        oo  XXXX      oooo  XXXX    XXXX    XXXX    XXXX    XXXX    XXXX  ",
"  XXXX    XXXX  oo  XXXXXX  oooo  XXXX    XXXX  oooo      XXXX  oo  XXXXXXXX  oo  XXXX        oo  XXXX      oooo  XXXX    XXXX    XXXX    XXXX    XXXX    XXXX  ",
"  XXXX    XXXX  oooo  XXXX  oooooo      XXXXXX  oooo  XXXXXX  oo  XXXX  XXXX  oo  XXXXXXXXXX  oo  XXXXXXXXXX  oooo        XXXX  oo  XXXXXXXX  oo  XXXX    XXXX  ",
"  XXXX    XXXX  oooo  XXXX  oooooo      XXXXXX  oooo  XXXXXX  oo  XXXX  XXXX  oo  XXXXXXXXXX  oo  XXXXXXXXXX  oooo        XXXX  oo  XXXXXXXX  oo  XXXX    XXXX  ",
"  XXXX    XXXX  oooo  XXXX  oooooooo  XXXXXX  oooo        XXXX    XXXX  XXXX  oooo        XXXX    XXXX    XXXX  oooooo  XXXX  oo  XXXX    XXXX  oo  XXXXXXXXXX  ",
"  XXXX    XXXX  oooo  XXXX  oooooooo  XXXXXX  oooo        XXXX    XXXX  XXXX  oooo        XXXX    XXXX    XXXX  oooooo  XXXX  oo  XXXX    XXXX  oo  XXXXXXXXXX  ",
"  XXXX    XXXX  oooo  XXXX  oooooo  XXXX      oo  XXXX    XXXX    XXXXXXXXXXXX    XXXX    XXXX    XXXX    XXXX  oooo  XXXX  oooo  XXXX    XXXX  oooo    XXXX  oo",
"  XXXX    XXXX  oooo  XXXX  oooooo  XXXX      oo  XXXX    XXXX    XXXXXXXXXXXX    XXXX    XXXX    XXXX    XXXX  oooo  XXXX  oooo  XXXX    XXXX  oooo    XXXX  oo",
"oo  XXXXXXXX  oooo  XXXXXXXX  oo  XXXXXXXXXXXX  oo  XXXXXXXX  oooo      XXXX  oooo  XXXXXXXX  oooo  XXXXXXXX  oooooo  XXXX  oooooo  XXXXXXXX  oooo  XXXXXX  oooo",
"oo  XXXXXXXX  oooo  XXXXXXXX  oo  XXXXXXXXXXXX  oo  XXXXXXXX  oooo      XXXX  oooo  XXXXXXXX  oooo  XXXXXXXX  oooooo  XXXX  oooooo  XXXXXXXX  oooo  XXXXXX  oooo",
"oooo        oooooooo        oooooo            oooooo        oooooooooooo    oooooooo        oooooooo        oooooooooo    oooooooooo        oooooooo      oooooo",
"oooo        oooooooo        oooooo            oooooo        oooooooooooo    oooooooo        oooooooo        oooooooooo    oooooooooo        oooooooo      oooooo",
"oooo        oooooooooo    oooooooooo        oooooooo        oooooooooo      oooooo            oooooo        oooooo            oooooo        oooooooo        oooo",
"oooo        oooooooooo    oooooooooo        oooooooo        oooooooooo      oooooo            oooooo        oooooo            oooooo        oooooooo        oooo",
"oo  ........  oooooo  ....  oooooo  ........  oooo  ........  oooooo  ......  oo  ............  oo  ........  oo  ............  oo  ........  oooo  ........  oo",
"oo  ........  oooooo  ....  oooooo  ........  oooo  ........  oooooo  ......  oo  ............  oo  ........  oo  ............  oo  ........  oooo  ........  oo",
"  ....    ....  oo  ......  oooo  ....    ....  oooo      ....  oo  ........  oo  ....        oo  ....      oooo  ....    ....    ....    ....    ....    ....  ",
"  ....    ....  oo  ......  oooo  ....    ....  oooo      ....  oo  ........  oo  ....        oo  ....      oooo  ....    ....    ....    ....    ....    ....  ",
"  ....    ....  oooo  ....  oooooo      ......  oooo  ......  oo  ....  ....  oo  ..........  oo  ..........  oooo        ....  oo  ........  oo  ....    ....  ",
"  ....    ....  oooo  ....  oooooo      ......  oooo  ......  oo  ....  ....  oo  ..........  oo  ..........  oooo        ....  oo  ........  oo  ....    ....  ",
"  ....    ....  oooo  ....  oooooooo  ......  oooo        ....    ....  ....  oooo        ....    ....    ....  oooooo  ....  oo  ....    ....  oo  ..........  ",
"  ....    ....  oooo  ....  oooooooo  ......  oooo        ....    ....  ....  oooo        ....    ....    ....  oooooo  ....  oo  ....    ....  oo  ..........  ",
"  ....    ....  oooo  ....  oooooo  ....      oo  ....    ....    ............    ....    ....    ....    ....  oooo  ....  oooo  ....    ....  oooo    ....  oo",
"  ....    ....  oooo  ....  oooooo  ....      oo  ....    ....    ............    ....    ....    ....    ....  oooo  ....  oooo  ....    ....  oooo    ....  oo",
"oo  ........  oooo  ........  oo  ............  oo  ........  oooo      ....  oooo  ........  oooo  ........  oooooo  ....  oooooo  ........  oooo  ......  oooo",
"oo  ........  oooo  ........  oo  ............  oo  ........  oooo      ....  oooo  ........  oooo  ........  oooooo  ....  oooooo  ........  oooo  ......  oooo",
"oooo        oooooooo        oooooo            oooooo        oooooooooooo    oooooooo        oooooooo        oooooooooo    oooooooooo        oooooooo      oooooo",
"oooo        oooooooo        oooooo            oooooo        oooooooooooo    oooooooo        oooooooo        oooooooooo    oooooooooo        oooooooo      oooooo"
};
