/* XPM */
static const char *exit[] = {
/* columns rows colors chars-per-pixel */
"128 64 9 1 ",
"  c gray19",
". c #304878",
"X c #585858",
"o c #784848",
"O c #A87850",
"+ c #D0A830",
"@ c #3860A8",
"# c #70B0D8",
"$ c #A0A0A0",
/* pixels */
"                                                                                                                                ",
"                                                                                                                                ",
"  OO++++OOOOOO++++OOOOOO++++OO    ooOO++++OOOO++++OOOO++++OOoo    OOooooOO++++++++++++OOooooOO    XX$$$$XXXXXX$$$$XXXXXX$$$$XX  ",
"  OO++++OOOOOO++++OOOOOO++++OO    ooOO++++OOOO++++OOOO++++OOoo    OOooooOO++++++++++++OOooooOO    XX$$$$XXXXXX$$$$XXXXXX$$$$XX  ",
"  ++OOooooOO++OOOO++OOooooOO++    OO++OOooooOO++++OOooooOO++OO    ooooOO++OOooOOOOooOO++OOoooo    $$XX    XX$$XXXX$$XX    XX$$  ",
"  ++OOooooOO++OOOO++OOooooOO++    OO++OOooooOO++++OOooooOO++OO    ooooOO++OOooOOOOooOO++OOoooo    $$XX    XX$$XXXX$$XX    XX$$  ",
"  ++ooooOO++OOooooOO++OOoooo++    ++OOooooOO++OOOO++OOooooOO++    ooOO++OOoooo++++ooooOO++OOoo    $$    XX$$XX    XX$$XX    $$  ",
"  ++ooooOO++OOooooOO++OOoooo++    ++OOooooOO++OOOO++OOooooOO++    ooOO++OOoooo++++ooooOO++OOoo    $$    XX$$XX    XX$$XX    $$  ",
"  OOooOO++OOooOOOOooOO++OOooOO    ++ooooooOO++oooo++OOoooooo++    OO++OOooooOO++++OOooooOO++OO    XX  XX$$XX  XXXX  XX$$XX  XX  ",
"  OOooOO++OOooOOOOooOO++OOooOO    ++ooooooOO++oooo++OOoooooo++    OO++OOooooOO++++OOooooOO++OO    XX  XX$$XX  XXXX  XX$$XX  XX  ",
"  OOOO++OOooOO++++OOooOO++OOOO    OOooOOOO++OOooooOO++OOOOooOO    ++OOooooOO++OOOO++OOooooOO++    XXXX$$XX  XX$$$$XX  XX$$XXXX  ",
"  OOOO++OOooOO++++OOooOO++OOOO    OOooOOOO++OOooooOO++OOOOooOO    ++OOooooOO++OOOO++OOooooOO++    XXXX$$XX  XX$$$$XX  XX$$XXXX  ",
"  OO++OOooOO++OOOO++OOooOO++OO    OOOO++++OOooOOOOooOO++++OOOO    ++ooooOO++OOooooOO++OOoooo++    XX$$XX  XX$$XXXX$$XX  XX$$XX  ",
"  OO++OOooOO++OOOO++OOooOO++OO    OOOO++++OOooOOOOooOO++++OOOO    ++ooooOO++OOooooOO++OOoooo++    XX$$XX  XX$$XXXX$$XX  XX$$XX  ",
"  ++OOooOO++OOooooOO++OOooOO++    ++++OOooooOO++++OOooooOO++++    ++OO++++OOooOOOOooOO++++OO++    $$XX  XX$$XX    XX$$XX  XX$$  ",
"  ++OOooOO++OOooooOO++OOooOO++    ++++OOooooOO++++OOooooOO++++    ++OO++++OOooOOOOooOO++++OO++    $$XX  XX$$XX    XX$$XX  XX$$  ",
"  ++OOooOO++OOooooOO++OOooOO++    ++++OOooooOO++++OOooooOO++++    ++OO++++OOooOOOOooOO++++OO++    $$XX  XX$$XX    XX$$XX  XX$$  ",
"  ++OOooOO++OOooooOO++OOooOO++    ++++OOooooOO++++OOooooOO++++    ++OO++++OOooOOOOooOO++++OO++    $$XX  XX$$XX    XX$$XX  XX$$  ",
"  OO++OOooOO++OOOO++OOooOO++OO    OOOO++++OOooOOOOooOO++++OOOO    ++ooooOO++OOooooOO++OOoooo++    XX$$XX  XX$$XXXX$$XX  XX$$XX  ",
"  OO++OOooOO++OOOO++OOooOO++OO    OOOO++++OOooOOOOooOO++++OOOO    ++ooooOO++OOooooOO++OOoooo++    XX$$XX  XX$$XXXX$$XX  XX$$XX  ",
"  OOOO++OOooOO++++OOooOO++OOOO    OOooOOOO++OOooooOO++OOOOooOO    ++OOooooOO++OOOO++OOooooOO++    XXXX$$XX  XX$$$$XX  XX$$XXXX  ",
"  OOOO++OOooOO++++OOooOO++OOOO    OOooOOOO++OOooooOO++OOOOooOO    ++OOooooOO++OOOO++OOooooOO++    XXXX$$XX  XX$$$$XX  XX$$XXXX  ",
"  OOooOO++OOooOOOOooOO++OOooOO    ++ooooooOO++oooo++OOoooooo++    OO++OOooooOO++++OOooooOO++OO    XX  XX$$XX  XXXX  XX$$XX  XX  ",
"  OOooOO++OOooOOOOooOO++OOooOO    ++ooooooOO++oooo++OOoooooo++    OO++OOooooOO++++OOooooOO++OO    XX  XX$$XX  XXXX  XX$$XX  XX  ",
"  ++ooooOO++OOooooOO++OOoooo++    ++OOooooOO++OOOO++OOooooOO++    ooOO++OOoooo++++ooooOO++OOoo    $$    XX$$XX    XX$$XX    $$  ",
"  ++ooooOO++OOooooOO++OOoooo++    ++OOooooOO++OOOO++OOooooOO++    ooOO++OOoooo++++ooooOO++OOoo    $$    XX$$XX    XX$$XX    $$  ",
"  ++OOooooOO++OOOO++OOooooOO++    OO++OOooooOO++++OOooooOO++OO    ooooOO++OOooOOOOooOO++OOoooo    $$XX    XX$$XXXX$$XX    XX$$  ",
"  ++OOooooOO++OOOO++OOooooOO++    OO++OOooooOO++++OOooooOO++OO    ooooOO++OOooOOOOooOO++OOoooo    $$XX    XX$$XXXX$$XX    XX$$  ",
"  OO++++OOOOOO++++OOOOOO++++OO    ooOO++++OOOO++++OOOO++++OOoo    OOooooOO++++++++++++OOooooOO    XX$$$$XXXXXX$$$$XXXXXX$$$$XX  ",
"  OO++++OOOOOO++++OOOOOO++++OO    ooOO++++OOOO++++OOOO++++OOoo    OOooooOO++++++++++++OOooooOO    XX$$$$XXXXXX$$$$XXXXXX$$$$XX  ",
"                                                                                                                                ",
"                                                                                                                                ",
"                                                                                                                                ",
"                                                                                                                                ",
"  @@####@@@@@@####@@@@@@####@@    ..@@####@@@@####@@@@####@@..    @@....@@############@@....@@    XX$$$$XXXXXX$$$$XXXXXX$$$$XX  ",
"  @@####@@@@@@####@@@@@@####@@    ..@@####@@@@####@@@@####@@..    @@....@@############@@....@@    XX$$$$XXXXXX$$$$XXXXXX$$$$XX  ",
"  ##@@....@@##@@@@##@@....@@##    @@##@@....@@####@@....@@##@@    ....@@##@@..@@@@..@@##@@....    $$XX    XX$$XXXX$$XX    XX$$  ",
"  ##@@....@@##@@@@##@@....@@##    @@##@@....@@####@@....@@##@@    ....@@##@@..@@@@..@@##@@....    $$XX    XX$$XXXX$$XX    XX$$  ",
"  ##....@@##@@....@@##@@....##    ##@@....@@##@@@@##@@....@@##    ..@@##@@....####....@@##@@..    $$    XX$$XX    XX$$XX    $$  ",
"  ##....@@##@@....@@##@@....##    ##@@....@@##@@@@##@@....@@##    ..@@##@@....####....@@##@@..    $$    XX$$XX    XX$$XX    $$  ",
"  @@..@@##@@..@@@@..@@##@@..@@    ##......@@##....##@@......##    @@##@@....@@####@@....@@##@@    XX  XX$$XX  XXXX  XX$$XX  XX  ",
"  @@..@@##@@..@@@@..@@##@@..@@    ##......@@##....##@@......##    @@##@@....@@####@@....@@##@@    XX  XX$$XX  XXXX  XX$$XX  XX  ",
"  @@@@##@@..@@####@@..@@##@@@@    @@..@@@@##@@....@@##@@@@..@@    ##@@....@@##@@@@##@@....@@##    XXXX$$XX  XX$$$$XX  XX$$XXXX  ",
"  @@@@##@@..@@####@@..@@##@@@@    @@..@@@@##@@....@@##@@@@..@@    ##@@....@@##@@@@##@@....@@##    XXXX$$XX  XX$$$$XX  XX$$XXXX  ",
"  @@##@@..@@##@@@@##@@..@@##@@    @@@@####@@..@@@@..@@####@@@@    ##....@@##@@....@@##@@....##    XX$$XX  XX$$XXXX$$XX  XX$$XX  ",
"  @@##@@..@@##@@@@##@@..@@##@@    @@@@####@@..@@@@..@@####@@@@    ##....@@##@@....@@##@@....##    XX$$XX  XX$$XXXX$$XX  XX$$XX  ",
"  ##@@..@@##@@....@@##@@..@@##    ####@@....@@####@@....@@####    ##@@####@@..@@@@..@@####@@##    $$XX  XX$$XX    XX$$XX  XX$$  ",
"  ##@@..@@##@@....@@##@@..@@##    ####@@....@@####@@....@@####    ##@@####@@..@@@@..@@####@@##    $$XX  XX$$XX    XX$$XX  XX$$  ",
"  ##@@..@@##@@....@@##@@..@@##    ####@@....@@####@@....@@####    ##@@####@@..@@@@..@@####@@##    $$XX  XX$$XX    XX$$XX  XX$$  ",
"  ##@@..@@##@@....@@##@@..@@##    ####@@....@@####@@....@@####    ##@@####@@..@@@@..@@####@@##    $$XX  XX$$XX    XX$$XX  XX$$  ",
"  @@##@@..@@##@@@@##@@..@@##@@    @@@@####@@..@@@@..@@####@@@@    ##....@@##@@....@@##@@....##    XX$$XX  XX$$XXXX$$XX  XX$$XX  ",
"  @@##@@..@@##@@@@##@@..@@##@@    @@@@####@@..@@@@..@@####@@@@    ##....@@##@@....@@##@@....##    XX$$XX  XX$$XXXX$$XX  XX$$XX  ",
"  @@@@##@@..@@####@@..@@##@@@@    @@..@@@@##@@....@@##@@@@..@@    ##@@....@@##@@@@##@@....@@##    XXXX$$XX  XX$$$$XX  XX$$XXXX  ",
"  @@@@##@@..@@####@@..@@##@@@@    @@..@@@@##@@....@@##@@@@..@@    ##@@....@@##@@@@##@@....@@##    XXXX$$XX  XX$$$$XX  XX$$XXXX  ",
"  @@..@@##@@..@@@@..@@##@@..@@    ##......@@##....##@@......##    @@##@@....@@####@@....@@##@@    XX  XX$$XX  XXXX  XX$$XX  XX  ",
"  @@..@@##@@..@@@@..@@##@@..@@    ##......@@##....##@@......##    @@##@@....@@####@@....@@##@@    XX  XX$$XX  XXXX  XX$$XX  XX  ",
"  ##....@@##@@....@@##@@....##    ##@@....@@##@@@@##@@....@@##    ..@@##@@....####....@@##@@..    $$    XX$$XX    XX$$XX    $$  ",
"  ##....@@##@@....@@##@@....##    ##@@....@@##@@@@##@@....@@##    ..@@##@@....####....@@##@@..    $$    XX$$XX    XX$$XX    $$  ",
"  ##@@....@@##@@@@##@@....@@##    @@##@@....@@####@@....@@##@@    ....@@##@@..@@@@..@@##@@....    $$XX    XX$$XXXX$$XX    XX$$  ",
"  ##@@....@@##@@@@##@@....@@##    @@##@@....@@####@@....@@##@@    ....@@##@@..@@@@..@@##@@....    $$XX    XX$$XXXX$$XX    XX$$  ",
"  @@####@@@@@@####@@@@@@####@@    ..@@####@@@@####@@@@####@@..    @@....@@############@@....@@    XX$$$$XXXXXX$$$$XXXXXX$$$$XX  ",
"  @@####@@@@@@####@@@@@@####@@    ..@@####@@@@####@@@@####@@..    @@....@@############@@....@@    XX$$$$XXXXXX$$$$XXXXXX$$$$XX  ",
"                                                                                                                                ",
"                                                                                                                                "
};
