/* XPM */
static char *floor[] = {
/* columns rows colors chars-per-pixel */
"96 128 9 1 ",
"  c #482020",
". c #683030",
"X c #703838",
"o c #587078",
"O c #847331",
"+ c #885858",
"@ c #986868",
"# c #AD9C6B",
"$ c #688088",
/* pixels */
"                                                                                                ",
"                                                                                                ",
"  XXXX    XXXX    XXXX    XXXX    XXXX    XXXX    XXXX    XXXX    XXXX    XXXX    XXXX    XXXX  ",
"  XXXX    XXXX    XXXX    XXXX    XXXX    XXXX    XXXX    XXXX    XXXX    XXXX    XXXX    XXXX  ",
"  XX  XXXX  XX    XX  XXXX  XX    XX  XXXX  XX    XX  XXXX  XX    XX  XXXX  XX    XX  XXXX  XX  ",
"  XX  XXXX  XX    XX  XXXX  XX    XX  XXXX  XX    XX  XXXX  XX    XX  XXXX  XX    XX  XXXX  XX  ",
"    XX    XX        XX    XX        XX    XX        XX    XX        XX    XX        XX    XX    ",
"    XX    XX        XX    XX        XX    XX        XX    XX        XX    XX        XX    XX    ",
"    XX    XX        XX    XX        XX    XX        XX    XX        XX    XX        XX    XX    ",
"    XX    XX        XX    XX        XX    XX        XX    XX        XX    XX        XX    XX    ",
"  XX  XXXX  XX    XX  XXXX  XX    XX  XXXX  XX    XX  XXXX  XX    XX  XXXX  XX    XX  XXXX  XX  ",
"  XX  XXXX  XX    XX  XXXX  XX    XX  XXXX  XX    XX  XXXX  XX    XX  XXXX  XX    XX  XXXX  XX  ",
"  XXXX    XXXX    XXXX    XXXX    XXXX    XXXX    XXXX    XXXX    XXXX    XXXX    XXXX    XXXX  ",
"  XXXX    XXXX    XXXX    XXXX    XXXX    XXXX    XXXX    XXXX    XXXX    XXXX    XXXX    XXXX  ",
"                                                                                                ",
"                                                                                                ",
"                ................................................................                ",
"                ................................................................                ",
"  XXXX    XXXX  ................................................................  XXXX    XXXX  ",
"  XXXX    XXXX  ................................................................  XXXX    XXXX  ",
"  XX  XXXX  XX  ................................................................  XX  XXXX  XX  ",
"  XX  XXXX  XX  ................................................................  XX  XXXX  XX  ",
"    XX    XX    ................................................................    XX    XX    ",
"    XX    XX    ................................................................    XX    XX    ",
"    XX    XX    ................................................................    XX    XX    ",
"    XX    XX    ................................................................    XX    XX    ",
"  XX  XXXX  XX  ................................................................  XX  XXXX  XX  ",
"  XX  XXXX  XX  ................................................................  XX  XXXX  XX  ",
"  XXXX    XXXX  ................................................................  XXXX    XXXX  ",
"  XXXX    XXXX  ................................................................  XXXX    XXXX  ",
"                ................................................................                ",
"                ................................................................                ",
"                ................................................................                ",
"                ................................................................                ",
"  XXXX    XXXX  ................................................................  XXXX    XXXX  ",
"  XXXX    XXXX  ................................................................  XXXX    XXXX  ",
"  XX  XXXX  XX  ................................................................  XX  XXXX  XX  ",
"  XX  XXXX  XX  ................................................................  XX  XXXX  XX  ",
"    XX    XX    ................................................................    XX    XX    ",
"    XX    XX    ................................................................    XX    XX    ",
"    XX    XX    ................................................................    XX    XX    ",
"    XX    XX    ................................................................    XX    XX    ",
"  XX  XXXX  XX  ................................................................  XX  XXXX  XX  ",
"  XX  XXXX  XX  ................................................................  XX  XXXX  XX  ",
"  XXXX    XXXX  ................................................................  XXXX    XXXX  ",
"  XXXX    XXXX  ................................................................  XXXX    XXXX  ",
"                ................................................................                ",
"                ................................................................                ",
"                ................................................................                ",
"                ................................................................                ",
"  XXXX    XXXX  ................................................................  XXXX    XXXX  ",
"  XXXX    XXXX  ................................................................  XXXX    XXXX  ",
"  XX  XXXX  XX  ................................................................  XX  XXXX  XX  ",
"  XX  XXXX  XX  ................................................................  XX  XXXX  XX  ",
"    XX    XX    ................................................................    XX    XX    ",
"    XX    XX    ................................................................    XX    XX    ",
"    XX    XX    ................................................................    XX    XX    ",
"    XX    XX    ................................................................    XX    XX    ",
"  XX  XXXX  XX  ................................................................  XX  XXXX  XX  ",
"  XX  XXXX  XX  ................................................................  XX  XXXX  XX  ",
"  XXXX    XXXX  ................................................................  XXXX    XXXX  ",
"  XXXX    XXXX  ................................................................  XXXX    XXXX  ",
"                ................................................................                ",
"                ................................................................                ",
"                ................................................................                ",
"                ................................................................                ",
"  XXXX    XXXX  ................................................................  XXXX    XXXX  ",
"  XXXX    XXXX  ................................................................  XXXX    XXXX  ",
"  XX  XXXX  XX  ................................................................  XX  XXXX  XX  ",
"  XX  XXXX  XX  ................................................................  XX  XXXX  XX  ",
"    XX    XX    ................................................................    XX    XX    ",
"    XX    XX    ................................................................    XX    XX    ",
"    XX    XX    ................................................................    XX    XX    ",
"    XX    XX    ................................................................    XX    XX    ",
"  XX  XXXX  XX  ................................................................  XX  XXXX  XX  ",
"  XX  XXXX  XX  ................................................................  XX  XXXX  XX  ",
"  XXXX    XXXX  ................................................................  XXXX    XXXX  ",
"  XXXX    XXXX  ................................................................  XXXX    XXXX  ",
"                ................................................................                ",
"                ................................................................                ",
"                                                                                                ",
"                                                                                                ",
"  XXXX    XXXX    XXXX    XXXX    XXXX    XXXX    XXXX    XXXX    XXXX    XXXX    XXXX    XXXX  ",
"  XXXX    XXXX    XXXX    XXXX    XXXX    XXXX    XXXX    XXXX    XXXX    XXXX    XXXX    XXXX  ",
"  XX  XXXX  XX    XX  XXXX  XX    XX  XXXX  XX    XX  XXXX  XX    XX  XXXX  XX    XX  XXXX  XX  ",
"  XX  XXXX  XX    XX  XXXX  XX    XX  XXXX  XX    XX  XXXX  XX    XX  XXXX  XX    XX  XXXX  XX  ",
"    XX    XX        XX    XX        XX    XX        XX    XX        XX    XX        XX    XX    ",
"    XX    XX        XX    XX        XX    XX        XX    XX        XX    XX        XX    XX    ",
"    XX    XX        XX    XX        XX    XX        XX    XX        XX    XX        XX    XX    ",
"    XX    XX        XX    XX        XX    XX        XX    XX        XX    XX        XX    XX    ",
"  XX  XXXX  XX    XX  XXXX  XX    XX  XXXX  XX    XX  XXXX  XX    XX  XXXX  XX    XX  XXXX  XX  ",
"  XX  XXXX  XX    XX  XXXX  XX    XX  XXXX  XX    XX  XXXX  XX    XX  XXXX  XX    XX  XXXX  XX  ",
"  XXXX    XXXX    XXXX    XXXX    XXXX    XXXX    XXXX    XXXX    XXXX    XXXX    XXXX    XXXX  ",
"  XXXX    XXXX    XXXX    XXXX    XXXX    XXXX    XXXX    XXXX    XXXX    XXXX    XXXX    XXXX  ",
"                                                                                                ",
"                                                                                                ",
"++++@@@@@@@@@@@@@@@@@@@@@@@@++++$$$$$$$$$$$$oooooooo$$$$$$$$$$$$################################",
"++++@@@@@@@@@@@@@@@@@@@@@@@@++++$$$$$$$$$$$$oooooooo$$$$$$$$$$$$################################",
"++++++@@@@@@@@@@@@@@@@@@@@++++++$$$$$$$$$$oooooooooooo$$$$$$$$$$################################",
"++++++@@@@@@@@@@@@@@@@@@@@++++++$$$$$$$$$$oooooooooooo$$$$$$$$$$################################",
"@@++++++@@@@@@@@@@@@@@@@++++++@@$$$$$$$$oooooo$$$$oooooo$$$$$$$$######OO##############OO########",
"@@++++++@@@@@@@@@@@@@@@@++++++@@$$$$$$$$oooooo$$$$oooooo$$$$$$$$######OO##############OO########",
"++@@++++++@@@@@@@@@@@@++++++@@++$$$$$$oooooo$$oooo$$oooooo$$$$$$################################",
"++@@++++++@@@@@@@@@@@@++++++@@++$$$$$$oooooo$$oooo$$oooooo$$$$$$################################",
"++++@@++++++@@@@@@@@++++++@@++++$$$$oooooo$$oooooooo$$oooooo$$$$################################",
"++++@@++++++@@@@@@@@++++++@@++++$$$$oooooo$$oooooooo$$oooooo$$$$################################",
"++++++@@++++++@@@@++++++@@++++++$$oooooo$$oooooooooooo$$oooooo$$##OO##############OO############",
"++++++@@++++++@@@@++++++@@++++++$$oooooo$$oooooooooooo$$oooooo$$##OO##############OO############",
"++++++++@@++++++++++++@@++++++++oooooo$$oooooooooooooooo$$oooooo##########OO##############OO####",
"++++++++@@++++++++++++@@++++++++oooooo$$oooooooooooooooo$$oooooo##########OO##############OO####",
"++++++++++@@++++++++@@++++++++++oooo$$oooooooooooooooooooo$$oooo################################",
"++++++++++@@++++++++@@++++++++++oooo$$oooooooooooooooooooo$$oooo################################",
"++++++++++@@++++++++@@++++++++++oooo$$oooooooooooooooooooo$$oooo################################",
"++++++++++@@++++++++@@++++++++++oooo$$oooooooooooooooooooo$$oooo################################",
"++++++++@@++++++++++++@@++++++++oooooo$$oooooooooooooooo$$oooooo################################",
"++++++++@@++++++++++++@@++++++++oooooo$$oooooooooooooooo$$oooooo################################",
"++++++@@++++++@@@@++++++@@++++++$$oooooo$$oooooooooooo$$oooooo$$######OO##############OO########",
"++++++@@++++++@@@@++++++@@++++++$$oooooo$$oooooooooooo$$oooooo$$######OO##############OO########",
"++++@@++++++@@@@@@@@++++++@@++++$$$$oooooo$$oooooooo$$oooooo$$$$################################",
"++++@@++++++@@@@@@@@++++++@@++++$$$$oooooo$$oooooooo$$oooooo$$$$################################",
"++@@++++++@@@@@@@@@@@@++++++@@++$$$$$$oooooo$$oooo$$oooooo$$$$$$################################",
"++@@++++++@@@@@@@@@@@@++++++@@++$$$$$$oooooo$$oooo$$oooooo$$$$$$################################",
"@@++++++@@@@@@@@@@@@@@@@++++++@@$$$$$$$$oooooo$$$$oooooo$$$$$$$$##OO##############OO############",
"@@++++++@@@@@@@@@@@@@@@@++++++@@$$$$$$$$oooooo$$$$oooooo$$$$$$$$##OO##############OO############",
"++++++@@@@@@@@@@@@@@@@@@@@++++++$$$$$$$$$$oooooooooooo$$$$$$$$$$##########OO##############OO####",
"++++++@@@@@@@@@@@@@@@@@@@@++++++$$$$$$$$$$oooooooooooo$$$$$$$$$$##########OO##############OO####",
"++++@@@@@@@@@@@@@@@@@@@@@@@@++++$$$$$$$$$$$$oooooooo$$$$$$$$$$$$################################",
"++++@@@@@@@@@@@@@@@@@@@@@@@@++++$$$$$$$$$$$$oooooooo$$$$$$$$$$$$################################"
};
