/* XPM */
static const char *gameover[] = {
/* columns rows colors chars-per-pixel */
"160 32 4 1 ",
"  c #E02020",
". c #F87820",
"X c #F8F860",
"o c None",
/* pixels */
"oooooooooooooooooooooooooooooooooooooooooooooooooooooooooooooooooooooooooooooooooooooooooooooooooooooooooooooooooooooooooooooooooooooooooooooooooooooooooooooooo",
"oooooooooooooooooooooooooooooooooooooooooooooooooooooooooooooooooooooooooooooooooooooooooooooooooooooooooooooooooooooooooooooooooooooooooooooooooooooooooooooooo",
"oooooooo      oooooooooooo      oooooooo    oooooo    oooo              oooooooooooooooooooo      oooooooo      oo      oooo              oooo          oooooooo",
"oooooooo      oooooooooooo      oooooooo    oooooo    oooo              oooooooooooooooooooo      oooooooo      oo      oooo              oooo          oooooooo",
"oooooo          oooooooo          oooooo      oo      oooo              oooooooooooooooooo          oooooo      oo      oooo              oooo            oooooo",
"oooooo          oooooooo          oooooo      oo      oooo              oooooooooooooooooo          oooooo      oo      oooo              oooo            oooooo",
"oooo  ..........  oooooo..........oooooo......oo......oooo..............oooooooooooooooo  ..........  oooo......oo......oooo..............oooo............  oooo",
"oooo  ..........  oooooo..........oooooo......oo......oooo..............oooooooooooooooo  ..........  oooo......oo......oooo..............oooo............  oooo",
"oooo......oo......oooo..............oooo..............oooo......oooooooooooooooooooooooo......oo......oooo......oo......oooo......oooooooooooo......oo......oooo",
"oooo......oo......oooo..............oooo..............oooo......oooooooooooooooooooooooo......oo......oooo......oo......oooo......oooooooooooo......oo......oooo",
"oooo......oooooooooooo......oo......oooo..............oooo......oooooooooooooooooooooooo......oo......oooo......oo......oooo......oooooooooooo......oo......oooo",
"oooo......oooooooooooo......oo......oooo..............oooo......oooooooooooooooooooooooo......oo......oooo......oo......oooo......oooooooooooo......oo......oooo",
"ooooXXXXXXooooooooooooXXXXXXooXXXXXXooooXXXXXXXXXXXXXXooooXXXXXXooooooooooooooooooooooooXXXXXXooXXXXXXooooXXXXXXooXXXXXXooooXXXXXXooooooooooooXXXXXXooXXXXXXoooo",
"ooooXXXXXXooooooooooooXXXXXXooXXXXXXooooXXXXXXXXXXXXXXooooXXXXXXooooooooooooooooooooooooXXXXXXooXXXXXXooooXXXXXXooXXXXXXooooXXXXXXooooooooooooXXXXXXooXXXXXXoooo",
"oooo......oo......oooo......oo......oooo....oo..oo....oooo............oooooooooooooooooo......oo......oooo......oo......oooo............oooooo............oooooo",
"oooo......oo......oooo......oo......oooo....oo..oo....oooo............oooooooooooooooooo......oo......oooo......oo......oooo............oooooo............oooooo",
"ooooXXXXXXooXXXXXXooooXXXXXXooXXXXXXooooXXXXooXXooXXXXooooXXXXXXXXXXXXooooooooooooooooooXXXXXXooXXXXXXooooXXXXXXooXXXXXXooooXXXXXXXXXXXXooooooXXXXXXXXXXXXoooooo",
"ooooXXXXXXooXXXXXXooooXXXXXXooXXXXXXooooXXXXooXXooXXXXooooXXXXXXXXXXXXooooooooooooooooooXXXXXXooXXXXXXooooXXXXXXooXXXXXXooooXXXXXXXXXXXXooooooXXXXXXXXXXXXoooooo",
"ooooXXXXXXooooXXXXooooXXXXXXooXXXXXXooooXXXXooooooXXXXooooXXXXXXooooooooooooooooooooooooXXXXXXooXXXXXXooooXXXXXXooXXXXXXooooXXXXXXooooooooooooXXXXXXooXXXXXXoooo",
"ooooXXXXXXooooXXXXooooXXXXXXooXXXXXXooooXXXXooooooXXXXooooXXXXXXooooooooooooooooooooooooXXXXXXooXXXXXXooooXXXXXXooXXXXXXooooXXXXXXooooooooooooXXXXXXooXXXXXXoooo",
"oooo......oooo....oooo..............oooo....oooooo....oooo......oooooooooooooooooooooooo......oo......oooooo....oo....oooooo......oooooooooooo......oo......oooo",
"oooo......oooo....oooo..............oooo....oooooo....oooo......oooooooooooooooooooooooo......oo......oooooo....oo....oooooo......oooooooooooo......oo......oooo",
"oooo......oo......oooo..............oooo....oooooo....oooo......oooooooooooooooooooooooo......oo......oooooo..........oooooo......oooooooooooo......oo......oooo",
"oooo......oo......oooo..............oooo....oooooo....oooo......oooooooooooooooooooooooo......oo......oooooo..........oooooo......oooooooooooo......oo......oooo",
"oooo  ..........  oooo......oo......oooo....oooooo....oooo..............oooooooooooooooo  ..........  oooooo  ......  oooooo..............oooo......oo......oooo",
"oooo  ..........  oooo......oo......oooo....oooooo....oooo..............oooooooooooooooo  ..........  oooooo  ......  oooooo..............oooo......oo......oooo",
"oooooo          oooooo      oo      oooo    oooooo    oooo              oooooooooooooooooo          oooooooooo      oooooooo              oooo      oo      oooo",
"oooooo          oooooo      oo      oooo    oooooo    oooo              oooooooooooooooooo          oooooooooo      oooooooo              oooo      oo      oooo",
"oooooooo      oooooooo      oo      oooo    oooooo    oooo              oooooooooooooooooooo      oooooooooooo      oooooooo              oooo      oo      oooo",
"oooooooo      oooooooo      oo      oooo    oooooo    oooo              oooooooooooooooooooo      oooooooooooo      oooooooo              oooo      oo      oooo",
"oooooooooooooooooooooooooooooooooooooooooooooooooooooooooooooooooooooooooooooooooooooooooooooooooooooooooooooooooooooooooooooooooooooooooooooooooooooooooooooooo",
"oooooooooooooooooooooooooooooooooooooooooooooooooooooooooooooooooooooooooooooooooooooooooooooooooooooooooooooooooooooooooooooooooooooooooooooooooooooooooooooooo"
};
