/* XPM */
static const char *link_hurt[] = {
/* columns rows colors chars-per-pixel */
"48 256 15 1 ",
"  c #282828",
". c #C01820",
"X c #885828",
"o c #B86820",
"O c #F87800",
"+ c #509010",
"@ c #78B820",
"# c #389068",
"$ c #40D870",
"% c #E09050",
"& c #F0A068",
"* c #F0D840",
"= c #E860B0",
"- c #F8F8F8",
"; c None",
/* pixels */
";;;;;;;;;;;;;;;;;;;;;;;;;;;;;;;;;;;;;;;;;;;;;;;;",
";;;;;;;;;;;;;;;;;;;;;;;;;;;;;;;;;;;;;;;;;;;;;;;;",
";;;;;;;;;;;;;;;;;;;;;;;;;;;;;;;;;;;;;;;;;;;;;;;;",
";;;;;;;;;;;;;;;;;;;;;;;;;;;;;;;;;;;;;;;;;;;;;;;;",
";;;;;;;;;;;;;;;;;;;;;;;;;;;;;;;;;;;;;;;;;;;;;;;;",
";;;;;;;;;;;;;;;;;;;;;;;;;;;;;;;;;;;;;;;;;;;;;;;;",
";;;;;;;;;;;;;;;;;;;;;;;;;;;;;;;;;;;;;;;;;;;;;;;;",
";;;;;;;;;;;;;;;;;;;;;;;;;;;;;;;;;;;;;;;;;;;;;;;;",
";;;;;;;;;;;;;;;;;;;;;;;;;;;;;;;;;;;;;;;;;;;;;;;;",
";;;;;;;;;;;;;;;;;;;;;;;;;;;;;;;;;;;;;;;;;;;;;;;;",
";;;;;;;;;;;;;;;;;;;;;;;;;;;;;;;;;;;;;;;;;;;;;;;;",
";;;;;;;;;;;;;;;;;;;;;;;;;;;;;;;;;;;;;;;;;;;;;;;;",
";;;;;;;;;;;;;;;;;;;;;;;;;;;;;;;;;;;;;;;;;;;;;;;;",
";;;;;;;;;;;;;;;;;;;;;;;;;;;;;;;;;;;;;;;;;;;;;;;;",
";;;;;;;;;;;;;;;;;;;;;;;;;;;;;;;;;;;;;;;;;;;;;;;;",
";;;;;;;;;;;;;;;;;;;;;;;;;;;;;;;;;;;;;;;;;;;;;;;;",
";;;;;;;;;;;;;;;;;;;;;;;;;;;;;;;;;;;;;;;;;;;;;;;;",
";;;;;;;;;;;;;;;;;;;;;;;;;;;;;;;;;;;;;;;;;;;;;;;;",
";;;;;;;;;;;;;;;;;;;;;;;;;;;;;;;;;;;;;;;;;;;;;;;;",
";;;;;;;;;;;;;;;;;;;;;;;;;;;;;;;;;;;;;;;;;;;;;;;;",
";;;;;;;;;;;;;;      ;;;;;;;;;;;;;;;;;;;;;;;;;;;;",
";;;;;;;;;;;;;;      ;;;;;;;;;;;;;;;;;;;;;;;;;;;;",
";;;;;;;;      @@@@@@        ;;;;;;;;;;;;;;;;;;;;",
";;;;;;;;      @@@@@@        ;;;;;;;;;;;;;;;;;;;;",
";;;;;;  ++++@@@@@@  ++@@@@      ;;;;;;;;;;;;;;;;",
";;;;;;  ++++@@@@@@  ++@@@@      ;;;;;;;;;;;;;;;;",
";;;;;;;;    ++++  &&  ++  OOOOOO  ;;;;;;;;;;;;;;",
";;;;;;;;    ++++  &&  ++  OOOOOO  ;;;;;;;;;;;;;;",
";;;;;;;;;;  ++  &&&&    OOOO    ==  ;;;;;;;;;;;;",
";;;;;;;;;;  ++  &&&&    OOOO    ==  ;;;;;;;;;;;;",
";;;;;;;;;;      &&&&  OO    ========  ;;;;;;;;;;",
";;;;;;;;;;      &&&&  OO    ========  ;;;;;;;;;;",
";;;;;;;;;;;;    oo&&    ============  ;;;;;;;;;;",
";;;;;;;;;;;;    oo&&    ============  ;;;;;;;;;;",
";;;;;;;;;;  ==  oo  ======      ====  ;;;;;;;;;;",
";;;;;;;;;;  ==  oo  ======      ====  ;;;;;;;;;;",
";;;;;;;;  ====  oo  ==    ------    ;;;;;;;;;;;;",
";;;;;;;;  ====  oo  ==    ------    ;;;;;;;;;;;;",
";;;;;;;;;;  ==  &&oo  oo--------  ;;;;;;;;;;;;;;",
";;;;;;;;;;  ==  &&oo  oo--------  ;;;;;;;;;;;;;;",
";;;;;;;;;;        &&oo&&oo--  &&&&  ;;;;;;;;;;;;",
";;;;;;;;;;        &&oo&&oo--  &&&&  ;;;;;;;;;;;;",
";;;;;;;;;;  ####  oooooo&&&&&&oo  ;;;;;;;;;;;;;;",
";;;;;;;;;;  ####  oooooo&&&&&&oo  ;;;;;;;;;;;;;;",
";;;;;;;;  $$$$                  ;;;;;;;;;;;;;;;;",
";;;;;;;;  $$$$                  ;;;;;;;;;;;;;;;;",
";;;;;;;;  $$  XXXX    ####          ;;;;;;;;;;;;",
";;;;;;;;  $$  XXXX    ####          ;;;;;;;;;;;;",
";;;;;;;;  ##  XXXX  %%  ####    ..OO  ;;;;;;;;;;",
";;;;;;;;  ##  XXXX  %%  ####    ..OO  ;;;;;;;;;;",
";;;;;;;;  ####    %%%%  **##      ..  ;;;;;;;;;;",
";;;;;;;;  ####    %%%%  **##      ..  ;;;;;;;;;;",
";;;;;;;;  ######  %%%%  **    OO..  ;;;;;;;;;;;;",
";;;;;;;;  ######  %%%%  **    OO..  ;;;;;;;;;;;;",
";;;;;;;;;;  ######    **$$  ......  ;;;;;;;;;;;;",
";;;;;;;;;;  ######    **$$  ......  ;;;;;;;;;;;;",
";;;;;;;;;;;;    ######**##  ....  ;;;;;;;;;;;;;;",
";;;;;;;;;;;;    ######**##  ....  ;;;;;;;;;;;;;;",
";;;;;;;;;;;;;;;;                ;;;;;;;;;;;;;;;;",
";;;;;;;;;;;;;;;;                ;;;;;;;;;;;;;;;;",
";;;;;;;;;;;;;;;;                ;;;;;;;;;;;;;;;;",
";;;;;;;;;;;;;;;;                ;;;;;;;;;;;;;;;;",
";;;;;;;;;;;;;;;;;;;;        ;;;;;;;;;;;;;;;;;;;;",
";;;;;;;;;;;;;;;;;;;;        ;;;;;;;;;;;;;;;;;;;;",
";;;;;;;;;;;;;;;;;;;;;;;;;;;;;;;;;;;;;;;;;;;;;;;;",
";;;;;;;;;;;;;;;;;;;;;;;;;;;;;;;;;;;;;;;;;;;;;;;;",
";;;;;;;;;;;;;;;;;;;;;;;;;;;;;;;;;;;;;;;;;;;;;;;;",
";;;;;;;;;;;;;;;;;;;;;;;;;;;;;;;;;;;;;;;;;;;;;;;;",
";;;;;;;;;;;;;;;;;;;;;;;;;;;;;;;;;;;;;;;;;;;;;;;;",
";;;;;;;;;;;;;;;;;;;;;;;;;;;;;;;;;;;;;;;;;;;;;;;;",
";;;;;;;;;;;;;;;;;;;;;;;;;;;;;;;;;;;;;;;;;;;;;;;;",
";;;;;;;;;;;;;;;;;;;;;;;;;;;;;;;;;;;;;;;;;;;;;;;;",
";;;;;;;;;;;;;;;;;;;;;;;;;;;;;;;;;;;;;;;;;;;;;;;;",
";;;;;;;;;;;;;;;;;;;;;;;;;;;;;;;;;;;;;;;;;;;;;;;;",
";;;;;;;;;;;;;;;;;;;;;;;;;;;;;;;;;;;;;;;;;;;;;;;;",
";;;;;;;;;;;;;;;;;;;;;;;;;;;;;;;;;;;;;;;;;;;;;;;;",
";;;;;;;;;;;;;;;;;;;;;;;;;;;;;;;;;;;;;;;;;;;;;;;;",
";;;;;;;;;;;;;;;;;;;;;;;;;;;;;;;;;;;;;;;;;;;;;;;;",
";;;;;;;;;;;;;;;;;;;;;;;;;;;;;;;;;;;;;;;;;;;;;;;;",
";;;;;;;;;;;;;;;;;;;;;;;;;;;;;;;;;;;;;;;;;;;;;;;;",
";;;;;;;;;;;;;;;;;;;;;;;;;;;;;;;;;;;;;;;;;;;;;;;;",
";;;;;;;;;;;;;;;;;;;;;;;;;;;;;;;;;;;;;;;;;;;;;;;;",
";;;;;;;;;;;;;;;;;;;;;;;;;;;;;;;;;;;;;;;;;;;;;;;;",
";;;;;;;;;;;;;;;;;;;;;;;;;;;;;;;;;;;;;;;;;;;;;;;;",
";;;;;;;;;;;;;;;;;;;;;;;;;;;;;;;;;;;;;;;;;;;;;;;;",
";;;;;;;;;;;;;;;;;;;;;;;;;;;;;;;;;;;;;;;;;;;;;;;;",
";;;;;;;;;;;;;;;;;;;;;;;;;;;;;;;;;;;;;;;;;;;;;;;;",
";;;;;;;;;;;;;;;;;;;;;;;;;;;;;;;;;;;;;;;;;;;;;;;;",
";;;;;;;;;;;;;;;;;;;;        ;;;;;;;;;;;;;;;;;;;;",
";;;;;;;;;;;;;;;;;;;;        ;;;;;;;;;;;;;;;;;;;;",
";;;;;;;;;;;;;;;;    ++++++++    ;;;;;;;;;;;;;;;;",
";;;;;;;;;;;;;;;;    ++++++++    ;;;;;;;;;;;;;;;;",
";;;;;;;;;;;;;;  ++++@@@@@@@@++++  ;;;;;;;;;;;;;;",
";;;;;;;;;;;;;;  ++++@@@@@@@@++++  ;;;;;;;;;;;;;;",
";;;;;;;;;;      ++@@++++    ++++      ;;;;;;;;;;",
";;;;;;;;;;      ++@@++++    ++++      ;;;;;;;;;;",
";;;;;;;;  &&  ++++++  ++@@@@@@++++  &&  ;;;;;;;;",
";;;;;;;;  &&  ++++++  ++@@@@@@++++  &&  ;;;;;;;;",
";;;;;;;;  &&      ++++@@@@@@--@@++  &&  ;;;;;;;;",
";;;;;;;;  &&      ++++@@@@@@--@@++  &&  ;;;;;;;;",
";;;;;;;;  oooo  OO    ++@@@@@@++  oooo  ;;;;;;;;",
";;;;;;;;  oooo  OO    ++@@@@@@++  oooo  ;;;;;;;;",
";;;;;;;;  oooo    OO    ++++@@++  oooo  ;;;;;;;;",
";;;;;;;;  oooo    OO    ++++@@++  oooo  ;;;;;;;;",
";;;;;;;;;;  oo  ==      ++++@@    oo  ;;;;;;;;;;",
";;;;;;;;;;  oo  ==      ++++@@    oo  ;;;;;;;;;;",
";;;;;;;;;;    ========    ++@@  ==    ;;;;;;;;;;",
";;;;;;;;;;    ========    ++@@  ==    ;;;;;;;;;;",
";;;;;;;;  %%    ==========    ==    %%  ;;;;;;;;",
";;;;;;;;  %%    ==========    ==    %%  ;;;;;;;;",
";;;;;;;;    XX      ========      XX    ;;;;;;;;",
";;;;;;;;    XX      ========      XX    ;;;;;;;;",
";;;;;;;;  XXXX  ####        $$$$  XXXX  ;;;;;;;;",
";;;;;;;;  XXXX  ####        $$$$  XXXX  ;;;;;;;;",
";;;;;;;;;;    ##########$$$$$$$$##    ;;;;;;;;;;",
";;;;;;;;;;    ##########$$$$$$$$##    ;;;;;;;;;;",
";;;;;;;;;;;;  ########$$$$$$$$$$##  ;;;;;;;;;;;;",
";;;;;;;;;;;;  ########$$$$$$$$$$##  ;;;;;;;;;;;;",
";;;;;;;;;;  ..  ########$$$$$$##  ..  ;;;;;;;;;;",
";;;;;;;;;;  ..  ########$$$$$$##  ..  ;;;;;;;;;;",
";;;;;;;;;;  ..  ################  ..  ;;;;;;;;;;",
";;;;;;;;;;  ..  ################  ..  ;;;;;;;;;;",
";;;;;;;;;;;;  ..    ########    ..  ;;;;;;;;;;;;",
";;;;;;;;;;;;  ..    ########    ..  ;;;;;;;;;;;;",
";;;;;;;;;;;;;;    ;;        ;;    ;;;;;;;;;;;;;;",
";;;;;;;;;;;;;;    ;;        ;;    ;;;;;;;;;;;;;;",
";;;;;;;;;;;;;;;;;;;;;;;;;;;;;;;;;;;;;;;;;;;;;;;;",
";;;;;;;;;;;;;;;;;;;;;;;;;;;;;;;;;;;;;;;;;;;;;;;;",
";;;;;;;;;;;;;;;;;;;;;;;;;;;;;;;;;;;;;;;;;;;;;;;;",
";;;;;;;;;;;;;;;;;;;;;;;;;;;;;;;;;;;;;;;;;;;;;;;;",
";;;;;;;;;;;;;;;;;;;;;;;;;;;;;;;;;;;;;;;;;;;;;;;;",
";;;;;;;;;;;;;;;;;;;;;;;;;;;;;;;;;;;;;;;;;;;;;;;;",
";;;;;;;;;;;;;;;;;;;;;;;;;;;;;;;;;;;;;;;;;;;;;;;;",
";;;;;;;;;;;;;;;;;;;;;;;;;;;;;;;;;;;;;;;;;;;;;;;;",
";;;;;;;;;;;;;;;;;;;;;;;;;;;;;;;;;;;;;;;;;;;;;;;;",
";;;;;;;;;;;;;;;;;;;;;;;;;;;;;;;;;;;;;;;;;;;;;;;;",
";;;;;;;;;;;;;;;;;;;;;;;;;;;;;;;;;;;;;;;;;;;;;;;;",
";;;;;;;;;;;;;;;;;;;;;;;;;;;;;;;;;;;;;;;;;;;;;;;;",
";;;;;;;;;;;;;;;;;;;;;;;;;;;;;;;;;;;;;;;;;;;;;;;;",
";;;;;;;;;;;;;;;;;;;;;;;;;;;;;;;;;;;;;;;;;;;;;;;;",
";;;;;;;;;;;;;;;;;;;;;;;;;;;;;;;;;;;;;;;;;;;;;;;;",
";;;;;;;;;;;;;;;;;;;;;;;;;;;;;;;;;;;;;;;;;;;;;;;;",
";;;;;;;;;;;;;;;;;;;;;;;;;;;;;;;;;;;;;;;;;;;;;;;;",
";;;;;;;;;;;;;;;;;;;;;;;;;;;;;;;;;;;;;;;;;;;;;;;;",
";;;;;;;;;;;;;;;;;;;;;;;;;;;;;;;;;;;;;;;;;;;;;;;;",
";;;;;;;;;;;;;;;;;;;;;;;;;;;;;;;;;;;;;;;;;;;;;;;;",
";;;;;;;;;;;;;;;;;;;;;;;;;;;;;;;;;;;;;;;;;;;;;;;;",
";;;;;;;;;;;;;;;;;;;;;;;;;;;;;;;;;;;;;;;;;;;;;;;;",
";;;;;;;;;;;;;;;;;;;;;;;;;;;;      ;;;;;;;;;;;;;;",
";;;;;;;;;;;;;;;;;;;;;;;;;;;;      ;;;;;;;;;;;;;;",
";;;;;;;;;;;;;;;;;;;;        @@@@@@      ;;;;;;;;",
";;;;;;;;;;;;;;;;;;;;        @@@@@@      ;;;;;;;;",
";;;;;;;;;;;;;;;;      @@@@++  @@@@@@++++  ;;;;;;",
";;;;;;;;;;;;;;;;      @@@@++  @@@@@@++++  ;;;;;;",
";;;;;;;;;;;;;;  OOOOOO  ++  &&  ++++    ;;;;;;;;",
";;;;;;;;;;;;;;  OOOOOO  ++  &&  ++++    ;;;;;;;;",
";;;;;;;;;;;;  ==    OOOO    &&&&  ++  ;;;;;;;;;;",
";;;;;;;;;;;;  ==    OOOO    &&&&  ++  ;;;;;;;;;;",
";;;;;;;;;;  ========    OO  &&&&      ;;;;;;;;;;",
";;;;;;;;;;  ========    OO  &&&&      ;;;;;;;;;;",
";;;;;;;;;;  ============    &&oo    ;;;;;;;;;;;;",
";;;;;;;;;;  ============    &&oo    ;;;;;;;;;;;;",
";;;;;;;;;;  ====      ======  oo  ==  ;;;;;;;;;;",
";;;;;;;;;;  ====      ======  oo  ==  ;;;;;;;;;;",
";;;;;;;;;;;;    ------    ==  oo  ====  ;;;;;;;;",
";;;;;;;;;;;;    ------    ==  oo  ====  ;;;;;;;;",
";;;;;;;;;;;;;;  --------oo  oo&&  ==  ;;;;;;;;;;",
";;;;;;;;;;;;;;  --------oo  oo&&  ==  ;;;;;;;;;;",
";;;;;;;;;;;;  &&&&  --oo&&oo&&        ;;;;;;;;;;",
";;;;;;;;;;;;  &&&&  --oo&&oo&&        ;;;;;;;;;;",
";;;;;;;;;;;;;;  oo&&&&&&oooooo  ####  ;;;;;;;;;;",
";;;;;;;;;;;;;;  oo&&&&&&oooooo  ####  ;;;;;;;;;;",
";;;;;;;;;;;;;;;;                  $$$$  ;;;;;;;;",
";;;;;;;;;;;;;;;;                  $$$$  ;;;;;;;;",
";;;;;;;;;;;;          ####    XXXX  $$  ;;;;;;;;",
";;;;;;;;;;;;          ####    XXXX  $$  ;;;;;;;;",
";;;;;;;;;;  OO..    ####  %%  XXXX  ##  ;;;;;;;;",
";;;;;;;;;;  OO..    ####  %%  XXXX  ##  ;;;;;;;;",
";;;;;;;;;;  ..      ##**  %%%%    ####  ;;;;;;;;",
";;;;;;;;;;  ..      ##**  %%%%    ####  ;;;;;;;;",
";;;;;;;;;;;;  ..OO    **  %%%%  ######  ;;;;;;;;",
";;;;;;;;;;;;  ..OO    **  %%%%  ######  ;;;;;;;;",
";;;;;;;;;;;;  ......  $$**    ######  ;;;;;;;;;;",
";;;;;;;;;;;;  ......  $$**    ######  ;;;;;;;;;;",
";;;;;;;;;;;;;;  ....  ##**######    ;;;;;;;;;;;;",
";;;;;;;;;;;;;;  ....  ##**######    ;;;;;;;;;;;;",
";;;;;;;;;;;;;;;;                ;;;;;;;;;;;;;;;;",
";;;;;;;;;;;;;;;;                ;;;;;;;;;;;;;;;;",
";;;;;;;;;;;;;;;;                ;;;;;;;;;;;;;;;;",
";;;;;;;;;;;;;;;;                ;;;;;;;;;;;;;;;;",
";;;;;;;;;;;;;;;;;;;;        ;;;;;;;;;;;;;;;;;;;;",
";;;;;;;;;;;;;;;;;;;;        ;;;;;;;;;;;;;;;;;;;;",
";;;;;;;;;;;;;;;;;;;;;;;;;;;;;;;;;;;;;;;;;;;;;;;;",
";;;;;;;;;;;;;;;;;;;;;;;;;;;;;;;;;;;;;;;;;;;;;;;;",
";;;;;;;;;;;;;;;;;;;;;;;;;;;;;;;;;;;;;;;;;;;;;;;;",
";;;;;;;;;;;;;;;;;;;;;;;;;;;;;;;;;;;;;;;;;;;;;;;;",
";;;;;;;;;;;;;;;;;;;;;;;;;;;;;;;;;;;;;;;;;;;;;;;;",
";;;;;;;;;;;;;;;;;;;;;;;;;;;;;;;;;;;;;;;;;;;;;;;;",
";;;;;;;;;;;;;;;;;;;;;;;;;;;;;;;;;;;;;;;;;;;;;;;;",
";;;;;;;;;;;;;;;;;;;;;;;;;;;;;;;;;;;;;;;;;;;;;;;;",
";;;;;;;;;;;;;;;;;;;;;;;;;;;;;;;;;;;;;;;;;;;;;;;;",
";;;;;;;;;;;;;;;;;;;;;;;;;;;;;;;;;;;;;;;;;;;;;;;;",
";;;;;;;;;;;;;;;;;;;;;;;;;;;;;;;;;;;;;;;;;;;;;;;;",
";;;;;;;;;;;;;;;;;;;;;;;;;;;;;;;;;;;;;;;;;;;;;;;;",
";;;;;;;;;;;;;;;;;;;;;;;;;;;;;;;;;;;;;;;;;;;;;;;;",
";;;;;;;;;;;;;;;;;;;;;;;;;;;;;;;;;;;;;;;;;;;;;;;;",
";;;;;;;;;;;;;;;;;;;;;;;;;;;;;;;;;;;;;;;;;;;;;;;;",
";;;;;;;;;;;;;;;;;;;;;;;;;;;;;;;;;;;;;;;;;;;;;;;;",
";;;;;;;;;;;;;;;;;;;;;;;;;;;;;;;;;;;;;;;;;;;;;;;;",
";;;;;;;;;;;;;;;;;;;;;;;;;;;;;;;;;;;;;;;;;;;;;;;;",
";;;;;;;;;;;;;;;;;;;;;;;;;;;;;;;;;;;;;;;;;;;;;;;;",
";;;;;;;;;;;;;;;;;;;;;;;;;;;;;;;;;;;;;;;;;;;;;;;;",
";;;;;;;;;;;;;;;;;;;;;;    ;;;;;;;;;;;;;;;;;;;;;;",
";;;;;;;;;;;;;;;;;;;;;;    ;;;;;;;;;;;;;;;;;;;;;;",
";;;;;;;;;;;;;;;;;;    ++@@    ;;;;;;;;;;;;;;;;;;",
";;;;;;;;;;;;;;;;;;    ++@@    ;;;;;;;;;;;;;;;;;;",
";;;;;;;;;;;;;;;;  ++++@@@@@@++  ;;;;;;;;;;;;;;;;",
";;;;;;;;;;;;;;;;  ++++@@@@@@++  ;;;;;;;;;;;;;;;;",
";;;;;;;;;;  ;;  OO++++@@@@@@++OO  ;;  ;;;;;;;;;;",
";;;;;;;;;;  ;;  OO++++@@@@@@++OO  ;;  ;;;;;;;;;;",
";;;;;;;;  &&      OOOOOOOOOOOO      &&  ;;;;;;;;",
";;;;;;;;  &&      OOOOOOOOOOOO      &&  ;;;;;;;;",
";;;;;;;;  &&  ====            ====  &&  ;;;;;;;;",
";;;;;;;;  &&  ====            ====  &&  ;;;;;;;;",
";;;;;;;;  oo&&  ================  &&oo  ;;;;;;;;",
";;;;;;;;  oo&&  ================  &&oo  ;;;;;;;;",
";;;;;;;;  oooo      ========      oooo  ;;;;;;;;",
";;;;;;;;  oooo      ========      oooo  ;;;;;;;;",
";;;;;;;;;;    oooooo        oooooo    ;;;;;;;;;;",
";;;;;;;;;;    oooooo        oooooo    ;;;;;;;;;;",
";;;;;;;;;;;;  oo&&----oooo----&&oo  ;;;;;;;;;;;;",
";;;;;;;;;;;;  oo&&----oooo----&&oo  ;;;;;;;;;;;;",
";;;;;;;;;;  XX  ------&&&&------  XX  ;;;;;;;;;;",
";;;;;;;;;;  XX  ------&&&&------  XX  ;;;;;;;;;;",
";;;;;;;;;;    XX  --  oooo  --  XX    ;;;;;;;;;;",
";;;;;;;;;;    XX  --  oooo  --  XX    ;;;;;;;;;;",
";;;;;;;;  %%%%        &&&&        %%%%  ;;;;;;;;",
";;;;;;;;  %%%%        &&&&        %%%%  ;;;;;;;;",
";;;;;;;;  %%%%  ##$$$$    ######  %%%%  ;;;;;;;;",
";;;;;;;;  %%%%  ##$$$$    ######  %%%%  ;;;;;;;;",
";;;;;;;;;;        ##********##        ;;;;;;;;;;",
";;;;;;;;;;        ##********##        ;;;;;;;;;;",
";;;;;;;;;;;;  OO..            ..OO  ;;;;;;;;;;;;",
";;;;;;;;;;;;  OO..            ..OO  ;;;;;;;;;;;;",
";;;;;;;;;;  ........        ........  ;;;;;;;;;;",
";;;;;;;;;;  ........        ........  ;;;;;;;;;;",
";;;;;;;;;;;;      ..        ..      ;;;;;;;;;;;;",
";;;;;;;;;;;;      ..        ..      ;;;;;;;;;;;;",
";;;;;;;;;;;;;;                    ;;;;;;;;;;;;;;",
";;;;;;;;;;;;;;                    ;;;;;;;;;;;;;;",
";;;;;;;;;;;;;;;;;;;;        ;;;;;;;;;;;;;;;;;;;;",
";;;;;;;;;;;;;;;;;;;;        ;;;;;;;;;;;;;;;;;;;;",
";;;;;;;;;;;;;;;;;;;;;;;;;;;;;;;;;;;;;;;;;;;;;;;;",
";;;;;;;;;;;;;;;;;;;;;;;;;;;;;;;;;;;;;;;;;;;;;;;;",
";;;;;;;;;;;;;;;;;;;;;;;;;;;;;;;;;;;;;;;;;;;;;;;;",
";;;;;;;;;;;;;;;;;;;;;;;;;;;;;;;;;;;;;;;;;;;;;;;;"
};
