/* XPM */
static const char *link_idle[] = {
/* columns rows colors chars-per-pixel */
"48 256 15 1 ",
"  c #282828",
". c #C01820",
"X c #885828",
"o c #B86820",
"O c #F87800",
"+ c #509010",
"@ c #78B820",
"# c #389068",
"$ c #40D870",
"% c #E09050",
"& c #F0A068",
"* c #F0D840",
"= c #E860B0",
"- c #F8F8F8",
"; c None",
/* pixels */
";;;;;;;;;;;;;;;;;;;;;;;;;;;;;;;;;;;;;;;;;;;;;;;;",
";;;;;;;;;;;;;;;;;;;;;;;;;;;;;;;;;;;;;;;;;;;;;;;;",
";;;;;;;;;;;;;;;;;;;;;;;;;;;;;;;;;;;;;;;;;;;;;;;;",
";;;;;;;;;;;;;;;;;;;;;;;;;;;;;;;;;;;;;;;;;;;;;;;;",
";;;;;;;;;;;;;;;;;;;;;;;;;;;;;;;;;;;;;;;;;;;;;;;;",
";;;;;;;;;;;;;;;;;;;;;;;;;;;;;;;;;;;;;;;;;;;;;;;;",
";;;;;;;;;;;;;;;;;;;;;;;;;;;;;;;;;;;;;;;;;;;;;;;;",
";;;;;;;;;;;;;;;;;;;;;;;;;;;;;;;;;;;;;;;;;;;;;;;;",
";;;;;;;;;;;;;;;;;;;;;;;;;;;;;;;;;;;;;;;;;;;;;;;;",
";;;;;;;;;;;;;;;;;;;;;;;;;;;;;;;;;;;;;;;;;;;;;;;;",
";;;;;;;;;;;;;;;;;;;;;;;;;;;;;;;;;;;;;;;;;;;;;;;;",
";;;;;;;;;;;;;;;;;;;;;;;;;;;;;;;;;;;;;;;;;;;;;;;;",
";;;;;;;;;;;;;;;;;;;;;;;;;;;;;;;;;;;;;;;;;;;;;;;;",
";;;;;;;;;;;;;;;;;;;;;;;;;;;;;;;;;;;;;;;;;;;;;;;;",
";;;;;;;;;;;;;;;;;;;;;;;;;;;;;;;;;;;;;;;;;;;;;;;;",
";;;;;;;;;;;;;;;;;;;;;;;;;;;;;;;;;;;;;;;;;;;;;;;;",
";;;;;;;;;;;;;;;;;;;;;;;;;;;;;;;;;;;;;;;;;;;;;;;;",
";;;;;;;;;;;;;;;;;;;;;;;;;;;;;;;;;;;;;;;;;;;;;;;;",
";;;;;;;;;;;;;;;;;;;;        ;;;;;;;;;;;;;;;;;;;;",
";;;;;;;;;;;;;;;;;;;;        ;;;;;;;;;;;;;;;;;;;;",
";;;;;;;;;;;;;;;;    @@@@++++  ;;;;;;;;;;;;;;;;;;",
";;;;;;;;;;;;;;;;    @@@@++++  ;;;;;;;;;;;;;;;;;;",
";;;;;;;;;;;;;;  ++@@@@@@++OOOO    ;;;;;;;;;;;;;;",
";;;;;;;;;;;;;;  ++@@@@@@++OOOO    ;;;;;;;;;;;;;;",
";;;;;;;;;;      @@@@@@++++OOOO  ==  ;;;;;;;;;;;;",
";;;;;;;;;;      @@@@@@++++OOOO  ==  ;;;;;;;;;;;;",
";;;;;;;;  @@++  ++++++OOOOOO  ======  ;;;;;;;;;;",
";;;;;;;;  @@++  ++++++OOOOOO  ======  ;;;;;;;;;;",
";;;;;;  @@@@++++++  OOOO    ========  ;;;;;;;;;;",
";;;;;;  @@@@++++++  OOOO    ========  ;;;;;;;;;;",
";;;;;;  @@++++++  &&    ========    ;;;;;;;;;;;;",
";;;;;;  @@++++++  &&    ========    ;;;;;;;;;;;;",
";;;;;;  @@++++    &&&&  ==      oo  ;;;;;;;;;;;;",
";;;;;;  @@++++    &&&&  ==      oo  ;;;;;;;;;;;;",
";;;;;;;;  ++      oo&&  ==  --  &&  ;;;;;;;;;;;;",
";;;;;;;;  ++      oo&&  ==  --  &&  ;;;;;;;;;;;;",
";;;;;;;;;;  ;;    oooo  ==  --  &&&&  ;;;;;;;;;;",
";;;;;;;;;;  ;;    oooo  ==  --  &&&&  ;;;;;;;;;;",
";;;;;;;;;;;;;;  ==  oooo  &&oo&&oo  ;;;;;;;;;;;;",
";;;;;;;;;;;;;;  ==  oooo  &&oo&&oo  ;;;;;;;;;;;;",
";;;;;;;;;;;;;;;;      oooooooo    &&  ;;;;;;;;;;",
";;;;;;;;;;;;;;;;      oooooooo    &&  ;;;;;;;;;;",
";;;;;;;;;;;;;;;;  ####        ##  oo  ;;;;;;;;;;",
";;;;;;;;;;;;;;;;  ####        ##  oo  ;;;;;;;;;;",
";;;;;;;;;;;;;;;;  $$##    ####$$##  ;;;;;;;;;;;;",
";;;;;;;;;;;;;;;;  $$##    ####$$##  ;;;;;;;;;;;;",
";;;;;;;;;;;;;;;;  $$  XXXX  $$##    ;;;;;;;;;;;;",
";;;;;;;;;;;;;;;;  $$  XXXX  $$##    ;;;;;;;;;;;;",
";;;;;;;;;;;;;;  **    XXXX  ##  **  ;;;;;;;;;;;;",
";;;;;;;;;;;;;;  **    XXXX  ##  **  ;;;;;;;;;;;;",
";;;;;;;;;;;;;;  ##**  %%%%%%  **##  ;;;;;;;;;;;;",
";;;;;;;;;;;;;;  ##**  %%%%%%  **##  ;;;;;;;;;;;;",
";;;;;;;;;;;;;;;;  ##  %%%%%%  ##  ;;;;;;;;;;;;;;",
";;;;;;;;;;;;;;;;  ##  %%%%%%  ##  ;;;;;;;;;;;;;;",
";;;;;;;;;;;;;;;;      %%%%          ;;;;;;;;;;;;",
";;;;;;;;;;;;;;;;      %%%%          ;;;;;;;;;;;;",
";;;;;;;;;;;;;;              ..        ;;;;;;;;;;",
";;;;;;;;;;;;;;              ..        ;;;;;;;;;;",
";;;;;;;;;;;;;;      ....OOOO          ;;;;;;;;;;",
";;;;;;;;;;;;;;      ....OOOO          ;;;;;;;;;;",
";;;;;;;;;;;;;;;;                    ;;;;;;;;;;;;",
";;;;;;;;;;;;;;;;                    ;;;;;;;;;;;;",
";;;;;;;;;;;;;;;;;;;;            ;;;;;;;;;;;;;;;;",
";;;;;;;;;;;;;;;;;;;;            ;;;;;;;;;;;;;;;;",
";;;;;;;;;;;;;;;;;;;;;;;;;;;;;;;;;;;;;;;;;;;;;;;;",
";;;;;;;;;;;;;;;;;;;;;;;;;;;;;;;;;;;;;;;;;;;;;;;;",
";;;;;;;;;;;;;;;;;;;;;;;;;;;;;;;;;;;;;;;;;;;;;;;;",
";;;;;;;;;;;;;;;;;;;;;;;;;;;;;;;;;;;;;;;;;;;;;;;;",
";;;;;;;;;;;;;;;;;;;;;;;;;;;;;;;;;;;;;;;;;;;;;;;;",
";;;;;;;;;;;;;;;;;;;;;;;;;;;;;;;;;;;;;;;;;;;;;;;;",
";;;;;;;;;;;;;;;;;;;;;;;;;;;;;;;;;;;;;;;;;;;;;;;;",
";;;;;;;;;;;;;;;;;;;;;;;;;;;;;;;;;;;;;;;;;;;;;;;;",
";;;;;;;;;;;;;;;;;;;;;;;;;;;;;;;;;;;;;;;;;;;;;;;;",
";;;;;;;;;;;;;;;;;;;;;;;;;;;;;;;;;;;;;;;;;;;;;;;;",
";;;;;;;;;;;;;;;;;;;;;;;;;;;;;;;;;;;;;;;;;;;;;;;;",
";;;;;;;;;;;;;;;;;;;;;;;;;;;;;;;;;;;;;;;;;;;;;;;;",
";;;;;;;;;;;;;;;;;;;;;;;;;;;;;;;;;;;;;;;;;;;;;;;;",
";;;;;;;;;;;;;;;;;;;;;;;;;;;;;;;;;;;;;;;;;;;;;;;;",
";;;;;;;;;;;;;;;;;;;;;;;;;;;;;;;;;;;;;;;;;;;;;;;;",
";;;;;;;;;;;;;;;;;;;;;;;;;;;;;;;;;;;;;;;;;;;;;;;;",
";;;;;;;;;;;;;;;;;;;;;;;;;;;;;;;;;;;;;;;;;;;;;;;;",
";;;;;;;;;;;;;;;;;;;;;;;;;;;;;;;;;;;;;;;;;;;;;;;;",
";;;;;;;;;;;;;;;;;;;;        ;;;;;;;;;;;;;;;;;;;;",
";;;;;;;;;;;;;;;;;;;;        ;;;;;;;;;;;;;;;;;;;;",
";;;;;;;;;;;;;;;;    ++++++++    ;;;;;;;;;;;;;;;;",
";;;;;;;;;;;;;;;;    ++++++++    ;;;;;;;;;;;;;;;;",
";;;;;;;;;;  ;;  ++++@@@@@@@@@@++  ;;  ;;;;;;;;;;",
";;;;;;;;;;  ;;  ++++@@@@@@@@@@++  ;;  ;;;;;;;;;;",
";;;;;;;;  &&    ++@@@@@@++++++++    &&  ;;;;;;;;",
";;;;;;;;  &&    ++@@@@@@++++++++    &&  ;;;;;;;;",
";;;;;;;;  &&    ++@@++++    ++++++  &&  ;;;;;;;;",
";;;;;;;;  &&    ++@@++++    ++++++  &&  ;;;;;;;;",
";;;;;;;;  oo  OO  ++  ++++++++  OO  oo  ;;;;;;;;",
";;;;;;;;  oo  OO  ++  ++++++++  OO  oo  ;;;;;;;;",
";;;;;;;;  oooo  OO  ++@@@@@@--++    oo  ;;;;;;;;",
";;;;;;;;  oooo  OO  ++@@@@@@--++    oo  ;;;;;;;;",
";;;;;;;;  oooo    OO  ++++@@@@++  oooo  ;;;;;;;;",
";;;;;;;;  oooo    OO  ++++@@@@++  oooo  ;;;;;;;;",
";;;;;;;;;;    ==        ++@@@@++  ==  ;;;;;;;;;;",
";;;;;;;;;;    ==        ++@@@@++  ==  ;;;;;;;;;;",
";;;;;;;;;;;;  ======    ++++@@  ==  ;;;;;;;;;;;;",
";;;;;;;;;;;;  ======    ++++@@  ==  ;;;;;;;;;;;;",
";;;;;;;;;;;;    ======  ++++@@      ;;;;;;;;;;;;",
";;;;;;;;;;;;    ======  ++++@@      ;;;;;;;;;;;;",
";;;;;;;;;;  XX      ====  ++@@    XX  ;;;;;;;;;;",
";;;;;;;;;;  XX      ====  ++@@    XX  ;;;;;;;;;;",
";;;;;;;;  XXXX  ##$$          ##  XXXX  ;;;;;;;;",
";;;;;;;;  XXXX  ##$$          ##  XXXX  ;;;;;;;;",
";;;;;;;;  XXXX  ####$$$$$$$$$$##  XXXX  ;;;;;;;;",
";;;;;;;;  XXXX  ####$$$$$$$$$$##  XXXX  ;;;;;;;;",
";;;;;;;;      **####$$$$$$$$$$####      ;;;;;;;;",
";;;;;;;;      **####$$$$$$$$$$####      ;;;;;;;;",
";;;;;;;;  %%  ##**######$$$$####**  %%  ;;;;;;;;",
";;;;;;;;  %%  ##**######$$$$####**  %%  ;;;;;;;;",
";;;;;;;;;;    ####****######****##    ;;;;;;;;;;",
";;;;;;;;;;    ####****######****##    ;;;;;;;;;;",
";;;;;;;;;;;;;;  ######******####  ;;;;;;;;;;;;;;",
";;;;;;;;;;;;;;  ######******####  ;;;;;;;;;;;;;;",
";;;;;;;;;;;;        ########        ;;;;;;;;;;;;",
";;;;;;;;;;;;        ########        ;;;;;;;;;;;;",
";;;;;;;;;;;;    ....        ....    ;;;;;;;;;;;;",
";;;;;;;;;;;;    ....        ....    ;;;;;;;;;;;;",
";;;;;;;;;;;;;;                    ;;;;;;;;;;;;;;",
";;;;;;;;;;;;;;                    ;;;;;;;;;;;;;;",
";;;;;;;;;;;;;;;;;;            ;;;;;;;;;;;;;;;;;;",
";;;;;;;;;;;;;;;;;;            ;;;;;;;;;;;;;;;;;;",
";;;;;;;;;;;;;;;;;;;;;;;;;;;;;;;;;;;;;;;;;;;;;;;;",
";;;;;;;;;;;;;;;;;;;;;;;;;;;;;;;;;;;;;;;;;;;;;;;;",
";;;;;;;;;;;;;;;;;;;;;;;;;;;;;;;;;;;;;;;;;;;;;;;;",
";;;;;;;;;;;;;;;;;;;;;;;;;;;;;;;;;;;;;;;;;;;;;;;;",
";;;;;;;;;;;;;;;;;;;;;;;;;;;;;;;;;;;;;;;;;;;;;;;;",
";;;;;;;;;;;;;;;;;;;;;;;;;;;;;;;;;;;;;;;;;;;;;;;;",
";;;;;;;;;;;;;;;;;;;;;;;;;;;;;;;;;;;;;;;;;;;;;;;;",
";;;;;;;;;;;;;;;;;;;;;;;;;;;;;;;;;;;;;;;;;;;;;;;;",
";;;;;;;;;;;;;;;;;;;;;;;;;;;;;;;;;;;;;;;;;;;;;;;;",
";;;;;;;;;;;;;;;;;;;;;;;;;;;;;;;;;;;;;;;;;;;;;;;;",
";;;;;;;;;;;;;;;;;;;;;;;;;;;;;;;;;;;;;;;;;;;;;;;;",
";;;;;;;;;;;;;;;;;;;;;;;;;;;;;;;;;;;;;;;;;;;;;;;;",
";;;;;;;;;;;;;;;;;;;;;;;;;;;;;;;;;;;;;;;;;;;;;;;;",
";;;;;;;;;;;;;;;;;;;;;;;;;;;;;;;;;;;;;;;;;;;;;;;;",
";;;;;;;;;;;;;;;;;;;;;;;;;;;;;;;;;;;;;;;;;;;;;;;;",
";;;;;;;;;;;;;;;;;;;;;;;;;;;;;;;;;;;;;;;;;;;;;;;;",
";;;;;;;;;;;;;;;;;;;;;;;;;;;;;;;;;;;;;;;;;;;;;;;;",
";;;;;;;;;;;;;;;;;;;;;;;;;;;;;;;;;;;;;;;;;;;;;;;;",
";;;;;;;;;;;;;;;;;;;;;;;;;;;;;;;;;;;;;;;;;;;;;;;;",
";;;;;;;;;;;;;;;;;;;;;;;;;;;;;;;;;;;;;;;;;;;;;;;;",
";;;;;;;;;;;;;;;;;;;;        ;;;;;;;;;;;;;;;;;;;;",
";;;;;;;;;;;;;;;;;;;;        ;;;;;;;;;;;;;;;;;;;;",
";;;;;;;;;;;;;;;;;;  ++++@@@@    ;;;;;;;;;;;;;;;;",
";;;;;;;;;;;;;;;;;;  ++++@@@@    ;;;;;;;;;;;;;;;;",
";;;;;;;;;;;;;;    OOOO++@@@@@@++  ;;;;;;;;;;;;;;",
";;;;;;;;;;;;;;    OOOO++@@@@@@++  ;;;;;;;;;;;;;;",
";;;;;;;;;;;;  ==  OOOO++++@@@@@@      ;;;;;;;;;;",
";;;;;;;;;;;;  ==  OOOO++++@@@@@@      ;;;;;;;;;;",
";;;;;;;;;;  ======  OOOOOO++++++  ++@@  ;;;;;;;;",
";;;;;;;;;;  ======  OOOOOO++++++  ++@@  ;;;;;;;;",
";;;;;;;;;;  ========    OOOO  ++++++@@@@  ;;;;;;",
";;;;;;;;;;  ========    OOOO  ++++++@@@@  ;;;;;;",
";;;;;;;;;;;;    ========    &&  ++++++@@  ;;;;;;",
";;;;;;;;;;;;    ========    &&  ++++++@@  ;;;;;;",
";;;;;;;;;;;;  oo      ==  &&&&    ++++@@  ;;;;;;",
";;;;;;;;;;;;  oo      ==  &&&&    ++++@@  ;;;;;;",
";;;;;;;;;;;;  &&  --  ==  &&oo      ++  ;;;;;;;;",
";;;;;;;;;;;;  &&  --  ==  &&oo      ++  ;;;;;;;;",
";;;;;;;;;;  &&&&  --  ==  oooo    ;;  ;;;;;;;;;;",
";;;;;;;;;;  &&&&  --  ==  oooo    ;;  ;;;;;;;;;;",
";;;;;;;;;;;;  oo&&oo&&  oooo  ==  ;;;;;;;;;;;;;;",
";;;;;;;;;;;;  oo&&oo&&  oooo  ==  ;;;;;;;;;;;;;;",
";;;;;;;;;;  &&    oooooooo      ;;;;;;;;;;;;;;;;",
";;;;;;;;;;  &&    oooooooo      ;;;;;;;;;;;;;;;;",
";;;;;;;;;;  oo  ##        ####  ;;;;;;;;;;;;;;;;",
";;;;;;;;;;  oo  ##        ####  ;;;;;;;;;;;;;;;;",
";;;;;;;;;;;;  ##$$####    ##$$  ;;;;;;;;;;;;;;;;",
";;;;;;;;;;;;  ##$$####    ##$$  ;;;;;;;;;;;;;;;;",
";;;;;;;;;;;;    ##$$  XXXX  $$  ;;;;;;;;;;;;;;;;",
";;;;;;;;;;;;    ##$$  XXXX  $$  ;;;;;;;;;;;;;;;;",
";;;;;;;;;;;;  **  ##  XXXX    **  ;;;;;;;;;;;;;;",
";;;;;;;;;;;;  **  ##  XXXX    **  ;;;;;;;;;;;;;;",
";;;;;;;;;;;;  ##**  %%%%%%  **##  ;;;;;;;;;;;;;;",
";;;;;;;;;;;;  ##**  %%%%%%  **##  ;;;;;;;;;;;;;;",
";;;;;;;;;;;;;;  ##  %%%%%%  ##  ;;;;;;;;;;;;;;;;",
";;;;;;;;;;;;;;  ##  %%%%%%  ##  ;;;;;;;;;;;;;;;;",
";;;;;;;;;;;;          %%%%      ;;;;;;;;;;;;;;;;",
";;;;;;;;;;;;          %%%%      ;;;;;;;;;;;;;;;;",
";;;;;;;;;;        ..              ;;;;;;;;;;;;;;",
";;;;;;;;;;        ..              ;;;;;;;;;;;;;;",
";;;;;;;;;;          OOOO....      ;;;;;;;;;;;;;;",
";;;;;;;;;;          OOOO....      ;;;;;;;;;;;;;;",
";;;;;;;;;;;;                    ;;;;;;;;;;;;;;;;",
";;;;;;;;;;;;                    ;;;;;;;;;;;;;;;;",
";;;;;;;;;;;;;;;;            ;;;;;;;;;;;;;;;;;;;;",
";;;;;;;;;;;;;;;;            ;;;;;;;;;;;;;;;;;;;;",
";;;;;;;;;;;;;;;;;;;;;;;;;;;;;;;;;;;;;;;;;;;;;;;;",
";;;;;;;;;;;;;;;;;;;;;;;;;;;;;;;;;;;;;;;;;;;;;;;;",
";;;;;;;;;;;;;;;;;;;;;;;;;;;;;;;;;;;;;;;;;;;;;;;;",
";;;;;;;;;;;;;;;;;;;;;;;;;;;;;;;;;;;;;;;;;;;;;;;;",
";;;;;;;;;;;;;;;;;;;;;;;;;;;;;;;;;;;;;;;;;;;;;;;;",
";;;;;;;;;;;;;;;;;;;;;;;;;;;;;;;;;;;;;;;;;;;;;;;;",
";;;;;;;;;;;;;;;;;;;;;;;;;;;;;;;;;;;;;;;;;;;;;;;;",
";;;;;;;;;;;;;;;;;;;;;;;;;;;;;;;;;;;;;;;;;;;;;;;;",
";;;;;;;;;;;;;;;;;;;;;;;;;;;;;;;;;;;;;;;;;;;;;;;;",
";;;;;;;;;;;;;;;;;;;;;;;;;;;;;;;;;;;;;;;;;;;;;;;;",
";;;;;;;;;;;;;;;;;;;;;;;;;;;;;;;;;;;;;;;;;;;;;;;;",
";;;;;;;;;;;;;;;;;;;;;;;;;;;;;;;;;;;;;;;;;;;;;;;;",
";;;;;;;;;;;;;;;;;;;;;;;;;;;;;;;;;;;;;;;;;;;;;;;;",
";;;;;;;;;;;;;;;;;;;;;;;;;;;;;;;;;;;;;;;;;;;;;;;;",
";;;;;;;;;;;;;;;;;;;;;;;;;;;;;;;;;;;;;;;;;;;;;;;;",
";;;;;;;;;;;;;;;;;;;;;;;;;;;;;;;;;;;;;;;;;;;;;;;;",
";;;;;;;;;;;;;;;;;;;;;;;;;;;;;;;;;;;;;;;;;;;;;;;;",
";;;;;;;;;;;;;;;;;;;;;;;;;;;;;;;;;;;;;;;;;;;;;;;;",
";;;;;;;;;;;;;;;;;;;;        ;;;;;;;;;;;;;;;;;;;;",
";;;;;;;;;;;;;;;;;;;;        ;;;;;;;;;;;;;;;;;;;;",
";;;;;;;;;;;;;;;;;;  ++++@@++    ;;;;;;;;;;;;;;;;",
";;;;;;;;;;;;;;;;;;  ++++@@++    ;;;;;;;;;;;;;;;;",
";;;;;;;;;;;;;;;;  ++++@@@@@@@@++  ;;;;;;;;;;;;;;",
";;;;;;;;;;;;;;;;  ++++@@@@@@@@++  ;;;;;;;;;;;;;;",
";;;;;;;;;;  ;;    OO++++@@++OO  ++    ;;;;;;;;;;",
";;;;;;;;;;  ;;    OO++++@@++OO  ++    ;;;;;;;;;;",
";;;;;;;;  &&  ==    OOOOOOOO    ++  &&  ;;;;;;;;",
";;;;;;;;  &&  ==    OOOOOOOO    ++  &&  ;;;;;;;;",
";;;;;;;;  &&  ======        ====    &&  ;;;;;;;;",
";;;;;;;;  &&  ======        ====    &&  ;;;;;;;;",
";;;;;;;;  oo&&  ================  &&oo  ;;;;;;;;",
";;;;;;;;  oo&&  ================  &&oo  ;;;;;;;;",
";;;;;;;;  oo  ==                ==  oo  ;;;;;;;;",
";;;;;;;;  oo  ==                ==  oo  ;;;;;;;;",
";;;;;;;;;;  oo  oo----oooo----oo  oo  ;;;;;;;;;;",
";;;;;;;;;;  oo  oo----oooo----oo  oo  ;;;;;;;;;;",
";;;;;;;;;;;;  oooo--  &&&&  --oooo  ;;;;;;;;;;;;",
";;;;;;;;;;;;  oooo--  &&&&  --oooo  ;;;;;;;;;;;;",
";;;;;;;;;;;;    oo&&  &&&&  &&oo    ;;;;;;;;;;;;",
";;;;;;;;;;;;    oo&&  &&&&  &&oo    ;;;;;;;;;;;;",
";;;;;;;;;;  $$##  oo&&&&&&&&oo  ##$$  ;;;;;;;;;;",
";;;;;;;;;;  $$##  oo&&&&&&&&oo  ##$$  ;;;;;;;;;;",
";;;;;;;;  XX  ####    oooo    ####  XX  ;;;;;;;;",
";;;;;;;;  XX  ####    oooo    ####  XX  ;;;;;;;;",
";;;;;;;;  XXXX  ##$$##    ##$$##  XXXX  ;;;;;;;;",
";;;;;;;;  XXXX  ##$$##    ##$$##  XXXX  ;;;;;;;;",
";;;;;;;;  %%    ####$$$$$$$$$$##    %%  ;;;;;;;;",
";;;;;;;;  %%    ####$$$$$$$$$$##    %%  ;;;;;;;;",
";;;;;;;;  %%%%  ######$$$$######  %%%%  ;;;;;;;;",
";;;;;;;;  %%%%  ######$$$$######  %%%%  ;;;;;;;;",
";;;;;;;;  %%  ##****  ****  ****##  %%  ;;;;;;;;",
";;;;;;;;  %%  ##****  ****  ****##  %%  ;;;;;;;;",
";;;;;;;;;;      ####********####      ;;;;;;;;;;",
";;;;;;;;;;      ####********####      ;;;;;;;;;;",
";;;;;;;;;;;;  ..    ########    ..  ;;;;;;;;;;;;",
";;;;;;;;;;;;  ..    ########    ..  ;;;;;;;;;;;;",
";;;;;;;;;;;;    OO..        ..OO    ;;;;;;;;;;;;",
";;;;;;;;;;;;    OO..        ..OO    ;;;;;;;;;;;;",
";;;;;;;;;;;;;;                    ;;;;;;;;;;;;;;",
";;;;;;;;;;;;;;                    ;;;;;;;;;;;;;;",
";;;;;;;;;;;;;;;;;;            ;;;;;;;;;;;;;;;;;;",
";;;;;;;;;;;;;;;;;;            ;;;;;;;;;;;;;;;;;;",
";;;;;;;;;;;;;;;;;;;;;;;;;;;;;;;;;;;;;;;;;;;;;;;;",
";;;;;;;;;;;;;;;;;;;;;;;;;;;;;;;;;;;;;;;;;;;;;;;;"
};
