/* XPM */
static char *smoke[] = {
/* columns rows colors chars-per-pixel */
"192 64 4 1 ",
"  c None",
". c #90B0E8",
"X c #A0D8F8",
"o c white",
/* pixels */
"                                                                                                                                                                                                ",
"                                                                                                                                                                                                ",
"                                                                                                                                                                                                ",
"                                                                                                                                                                                                ",
"                                                                                                                                              ....                            ....              ",
"                                                                                                                                              ....                            ....              ",
"                                                                                                                                      ....  ..oooo..                        ..oooo..  ....      ",
"                                                                                                                                      ....  ..oooo..                        ..oooo..  ....      ",
"                                                                                                                                    ..oooo....oo....                        ....oo....oooo..    ",
"                                                                                                                                    ..oooo....oo....                        ....oo....oooo..    ",
"                                                                                  XXXX                    XXXX                        ..XX..XX..                                ..XX..XX..      ",
"                                                                                  XXXX                    XXXX                        ..XX..XX..                                ..XX..XX..      ",
"                                                                              XXXXooooXX                XXooooXXXX                      ..  ..                                    ..  ..        ",
"                                                                              XXXXooooXX                XXooooXXXX                      ..  ..                                    ..  ..        ",
"                                                                            XXooooooooooXX            XXooooooooooXX                    ....  ....                            ....  ....        ",
"                                                                            XXooooooooooXX            XXooooooooooXX                    ....  ....                            ....  ....        ",
"                    ......  ........  ......                              XXoooo..oo..ooXX            XXoo..oo..ooooXX                ..ooXX..                                    ..XXoo..      ",
"                    ......  ........  ......                              XXoooo..oo..ooXX            XXoo..oo..ooooXX                ..ooXX..                                    ..XXoo..      ",
"                  ..oooo....XXXXXXXX....oooo..                            ..oo..oooooo....            ....oooooo..oo..                  ....                                        ....        ",
"                  ..oooo....XXXXXXXX....oooo..                            ..oo..oooooo....            ....oooooo..oo..                  ....                                        ....        ",
"                ..oooo..XXXXooooooooXXXX..oooo..                          ..oooo..ooooooXX            XXoooooo..oooo..                                                                          ",
"                ..oooo..XXXXooooooooXXXX..oooo..                          ..oooo..ooooooXX            XXoooooo..oooo..                                                                          ",
"                ..oo..XXooooooooooooooooXX..oo..                            ..oo..ooooXX                XXoooo..oo..                                                                            ",
"                ..oo..XXooooooooooooooooXX..oo..                            ..oo..ooooXX                XXoooo..oo..                                                                            ",
"                  ....XXoo..oooooooo..ooXX....                                ..  ..XX                    XX..  ..                                                                              ",
"                  ....XXoo..oooooooo..ooXX....                                ..  ..XX                    XX..  ..                                                                              ",
"                  ..XXoo......oooo......ooXX..                                                                                                                                                  ",
"                  ..XXoo......oooo......ooXX..                                                                                                                                                  ",
"                  ..XXoo......oooo......ooXX..                                                                                                                                                  ",
"                  ..XXoo......oooo......ooXX..                                                                                                                                                  ",
"                  ..XXooXX....oooo....XXooXX..                                                                                                                                                  ",
"                  ..XXooXX....oooo....XXooXX..                                                                                                                                                  ",
"                  ..ooooooXXXXooooXXXXoooooo..                                                                                                                                                  ",
"                  ..ooooooXXXXooooXXXXoooooo..                                                                                                                                                  ",
"                    ....oooooooooooooooo....                                                                                                                                                    ",
"                    ....oooooooooooooooo....                                                                                                                                                    ",
"                  ..oo..oooooooooooooooo..oo..                                                                                                                                                  ",
"                  ..oo..oooooooooooooooo..oo..                                                                                                                                                  ",
"                ..oo....oooooo....oooooo....oo..                              ..  ..XX                    XX..  ..                                                                              ",
"                ..oo....oooooo....oooooo....oo..                              ..  ..XX                    XX..  ..                                                                              ",
"                ..oooo....oooo....oooo....oooo..                            ..oo..ooooXX                XXoooo..oo..                                                                            ",
"                ..oooo....oooo....oooo....oooo..                            ..oo..ooooXX                XXoooo..oo..                                                                            ",
"                  ..oooooo............oooooo..                            ..oooo..ooooooXX            XXoooooo..oooo..                                                                          ",
"                  ..oooooo............oooooo..                            ..oooo..ooooooXX            XXoooooo..oooo..                                                                          ",
"                    ......            ......                              ..oo..oooooo....            ....oooooo..oo..                  ....                                        ....        ",
"                    ......            ......                              ..oo..oooooo....            ....oooooo..oo..                  ....                                        ....        ",
"                                                                          XXoooo..oo..ooXX            XXoo..oo..ooooXX                ..ooXX..                                    ..XXoo..      ",
"                                                                          XXoooo..oo..ooXX            XXoo..oo..ooooXX                ..ooXX..                                    ..XXoo..      ",
"                                                                            XXooooooooooXX            XXooooooooooXX                    ....  ....                            ....  ....        ",
"                                                                            XXooooooooooXX            XXooooooooooXX                    ....  ....                            ....  ....        ",
"                                                                              XXXXooooXX                XXooooXXXX                      ..  ..                                    ..  ..        ",
"                                                                              XXXXooooXX                XXooooXXXX                      ..  ..                                    ..  ..        ",
"                                                                                  XXXX                    XXXX                        ..XX..XX..                                ..XX..XX..      ",
"                                                                                  XXXX                    XXXX                        ..XX..XX..                                ..XX..XX..      ",
"                                                                                                                                    ..oooo....oo....                        ....oo....oooo..    ",
"                                                                                                                                    ..oooo....oo....                        ....oo....oooo..    ",
"                                                                                                                                      ....  ..oooo..                        ..oooo..  ....      ",
"                                                                                                                                      ....  ..oooo..                        ..oooo..  ....      ",
"                                                                                                                                              ....                            ....              ",
"                                                                                                                                              ....                            ....              ",
"                                                                                                                                                                                                ",
"                                                                                                                                                                                                ",
"                                                                                                                                                                                                ",
"                                                                                                                                                                                                "
};
